<svg width="3458" height="1657" viewBox="0 0 3458 1657" fill="none" xmlns="http://www.w3.org/2000/svg">
<path d="M371.092 1651.49H3285.11L3181.15 801.504C3067.75 28.7731 2227.73 -227.84 1628.09 222.133C1384.57 363.746 1099.76 408.533 821.664 378.533C280.348 326.6 -97.9706 989.746 220.848 1429.56L371.092 1651.49Z" fill="#DCECFD"/>
<mask id="mask0_10_3" style="mask-type:luminance" maskUnits="userSpaceOnUse" x="104" y="0" width="3182" height="1652">
<path d="M371.092 1651.49H3285.11L3181.15 801.504C3067.75 28.7731 2227.73 -227.84 1628.09 222.133C1384.57 363.746 1099.76 408.533 821.664 378.533C280.348 326.6 -97.9706 989.746 220.848 1429.56L371.092 1651.49Z" fill="white"/>
</mask>
<g mask="url(#mask0_10_3)">
<path d="M3285.11 1651.49H371.092L220.848 1429.56C147.099 1327.81 110.643 1214.17 104.889 1100.15V1049.77H557.233V729.19H1361.97V1126.65H2274.6V799.733H2910.39V1001.51H3205.61L3285.11 1651.49Z" fill="#EBF4FE"/>
</g>
<path d="M2427.28 495.067H2226.44C2214.28 495.067 2203.68 503.347 2200.75 515.147L1953.25 1506.29L1971.47 1506.32L2216.93 523.28C2218.32 517.733 2223.31 513.84 2229.04 513.84H2427.28C2432.47 513.84 2436.67 509.64 2436.67 504.453C2436.67 499.267 2432.47 495.067 2427.28 495.067Z" fill="#324D90"/>
<path d="M3142.88 495.893H2941.71C2929.55 495.893 2918.96 504.16 2916.01 515.96L2668.52 1507.11L2686.75 1507.13L2932.21 524.107C2933.6 518.547 2938.59 514.653 2944.31 514.653H3142.88C3148.05 514.653 3152.25 510.453 3152.25 505.267C3152.25 500.093 3148.05 495.893 3142.88 495.893Z" fill="#324D90"/>
<path d="M2203.43 1553.93C2203.03 1515.65 2188.43 1471.84 2149.99 1458.35C2132.33 1454.32 2113.67 1457.15 2095.67 1456.48C2048.01 1449.51 2013.97 1491.67 2013.03 1553.93C2013.99 1616.2 2048 1658.33 2095.67 1651.37C2113.67 1650.71 2132.33 1653.53 2149.99 1649.51C2188.16 1636.52 2203.28 1591.4 2203.43 1553.93Z" fill="#152E60"/>
<path d="M1863.76 1511.63C1855.09 1484.87 1833.97 1456.51 1803.43 1456.36C1784.33 1456.45 1764.52 1456.41 1745.79 1456.37C1708.96 1457.24 1679.36 1501.47 1679.97 1555.55C1680.6 1608.87 1710.4 1651.77 1747.35 1651.49C1766.04 1651.41 1784.73 1651.41 1803.43 1651.49C1850.12 1649.37 1870.61 1594.71 1870.36 1553.93C1870.36 1538.77 1867.99 1524.43 1863.76 1511.63Z" fill="#152E60"/>
<path d="M2806.91 1520.6H2325.49V927.053H2806.91V1520.6Z" fill="#F08F3C"/>
<path d="M2638.45 994.733H2581.43V927.053H2638.45V994.733Z" fill="#FDF1E6"/>
<path d="M2405.29 1520.6H1679.96V927.053H2405.29V1520.6Z" fill="#F3AC4A"/>
<path d="M2085.59 994.733H1999.67V927.053H2085.59V994.733Z" fill="#FDF1E6"/>
<path d="M2876.01 1549.25H1610.85V1515.4H2876.01V1549.25Z" fill="#324D90"/>
<path d="M2243.43 1549.25H1610.85V1515.4H2243.43V1549.25Z" fill="#152E60"/>
<path d="M2766.63 1456.36C2751.97 1456.44 2737.32 1456.44 2722.67 1456.36C2623.17 1442.24 2617.43 1648.31 2710.11 1651.49C2724.76 1651.41 2739.41 1651.41 2754.07 1651.49C2853.55 1665.61 2859.31 1459.56 2766.63 1456.36Z" fill="#152E60"/>
<path d="M2833.56 1553.93C2831.83 1682.33 2701.41 1682.32 2699.69 1553.92C2701.43 1425.52 2831.84 1425.53 2833.56 1553.93Z" fill="#324D90"/>
<path d="M2790.63 1553.93C2790 1603.4 2743.24 1603.4 2742.63 1553.92C2743.25 1504.45 2790.01 1504.45 2790.63 1553.93Z" fill="#152E60"/>
<path d="M2433.56 1456.36C2418.89 1456.44 2404.25 1456.44 2389.59 1456.36C2290.11 1442.24 2284.35 1648.31 2377.03 1651.49C2391.68 1651.41 2406.33 1651.41 2421 1651.49C2520.48 1665.61 2526.23 1459.56 2433.56 1456.36Z" fill="#152E60"/>
<path d="M2500.49 1553.93C2498.75 1682.33 2368.35 1682.32 2366.61 1553.92C2368.36 1425.52 2498.76 1425.53 2500.49 1553.93Z" fill="#324D90"/>
<path d="M2457.56 1553.93C2456.93 1603.4 2410.17 1603.4 2409.55 1553.92C2410.17 1504.45 2456.93 1504.45 2457.56 1553.93Z" fill="#152E60"/>
<path d="M1649.51 451.16L1474.76 592.973L1418.29 531.146L1344.96 598.12C1353.59 607.653 1404.96 663.585 1412 671.806C1440.4 705.065 1495.83 705.162 1524.39 672.084L1683.49 495.466L1649.51 451.16Z" fill="#F4D2C6"/>
<mask id="mask1_10_3" style="mask-type:luminance" maskUnits="userSpaceOnUse" x="1344" y="451" width="340" height="246">
<path d="M1649.51 451.16L1474.76 592.973L1418.29 531.146L1344.96 598.12C1353.59 607.653 1404.96 663.585 1412 671.808C1440.4 705.065 1495.83 705.163 1524.39 672.084L1683.49 495.467L1649.51 451.16Z" fill="white"/>
</mask>
<g mask="url(#mask1_10_3)">
<path d="M1474.76 592.973L1426.88 697.044L1374.01 650.427L1457.64 569.4L1474.76 592.973Z" fill="#EDA19D"/>
</g>
<path d="M1745.93 751.417H1584.12C1575.41 751.417 1568.35 744.353 1568.35 735.637V496.8C1568.35 488.08 1575.41 481.013 1584.12 481.013H1745.93C1754.64 481.013 1761.71 488.08 1761.71 496.8V735.637C1761.71 744.353 1754.64 751.417 1745.93 751.417Z" fill="#324D90"/>
<path d="M1742.79 730.772H1587.27V501.813H1742.79V730.772Z" fill="#F3F5FB"/>
<path d="M1691.89 508.213H1638.16C1634.67 508.213 1631.84 505.386 1631.84 501.906V481.373C1631.84 477.893 1634.67 475.067 1638.16 475.067H1691.89C1695.39 475.067 1698.21 477.893 1698.21 481.373V501.906C1698.21 505.386 1695.39 508.213 1691.89 508.213Z" fill="#152E60"/>
<path d="M1729.6 555.587H1600.45V540.013H1729.6V555.587Z" fill="#E3EAF4"/>
<path d="M1729.6 589.8H1600.45V574.226H1729.6V589.8Z" fill="#E3EAF4"/>
<path d="M1729.6 624H1600.45V608.427H1729.6V624Z" fill="#E3EAF4"/>
<path d="M1729.6 658.215H1600.45V642.64H1729.6V658.215Z" fill="#E3EAF4"/>
<path d="M1691 692.424H1600.45V676.852H1691V692.424Z" fill="#E3EAF4"/>
<path d="M1639.73 468.667C1637.29 489.147 1654.04 499.76 1670 507.787C1693.25 522.04 1725.52 498.68 1718.53 472.067C1716.03 453.253 1703.99 444.08 1686.39 439.747C1666.65 433.373 1641.37 447.067 1639.73 468.667Z" fill="#F4D2C6"/>
<path d="M984.036 490.16L1173.84 390.6L1234.41 506.093L1044.61 605.653L984.036 490.16Z" fill="#4292F3"/>
<path d="M976.195 627.707L1037.81 586.454L994.759 510.6C958.312 532.08 898.361 554.347 899.199 605.573C902.491 626.507 874.939 859.096 897.519 869.112C924.116 899.388 953.361 874.607 977.747 856.664L943.668 856.323L976.195 627.707Z" fill="#F4D2C6"/>
<mask id="mask2_10_3" style="mask-type:luminance" maskUnits="userSpaceOnUse" x="888" y="510" width="150" height="374">
<path d="M976.195 627.693L1037.81 586.453L994.757 510.6C958.312 532.08 898.361 554.346 899.199 605.573C902.489 626.506 874.939 859.096 897.519 869.112C924.115 899.388 953.361 874.608 977.745 856.664L943.668 856.322L976.195 627.693Z" fill="white"/>
</mask>
<g mask="url(#mask2_10_3)">
<path d="M967.628 512.04L989.92 601.266L1041.03 567.986L1006.03 491.64L967.628 512.04Z" fill="#EDA19D"/>
</g>
<path d="M1385.91 662.323L1234.36 510.773L1326.57 418.547L1478.13 570.107L1385.91 662.323Z" fill="#4292F3"/>
<path d="M1389.11 659.123L1363.67 519.787L1406.67 641.56L1389.11 659.123Z" fill="#3C7ED7"/>
<path d="M1070.53 731.1L1086.73 1580H1143.81L1263.45 729.191L1070.53 731.1Z" fill="#324D90"/>
<mask id="mask3_10_3" style="mask-type:luminance" maskUnits="userSpaceOnUse" x="1070" y="729" width="194" height="851">
<path d="M1070.53 731.101L1086.73 1579.99H1143.81L1263.45 729.191L1070.53 731.101Z" fill="white"/>
</mask>
<g mask="url(#mask3_10_3)">
<path d="M1231.4 957.2C1148.45 1067.39 1123.47 1432.92 1116.92 1591.52H1167L1228.93 1202.6L1231.4 957.2Z" fill="#2A437D"/>
</g>
<path d="M1392.99 731.1L1376.79 1580H1316.99L1200.05 729.191L1392.99 731.1Z" fill="#324D90"/>
<mask id="mask4_10_3" style="mask-type:luminance" maskUnits="userSpaceOnUse" x="1200" y="729" width="193" height="851">
<path d="M1392.99 731.101L1376.79 1579.99H1316.99L1200.05 729.191L1392.99 731.101Z" fill="white"/>
</mask>
<g mask="url(#mask4_10_3)">
<path d="M1231.4 957.2C1301.92 1046.8 1340.81 1457.96 1342.53 1586.55H1296.52L1231.4 957.2Z" fill="#2A437D"/>
</g>
<path d="M1176.04 261.84C1180.43 288.213 1157.72 292.08 1153.16 265.72C1148.77 239.347 1171.47 235.493 1176.04 261.84Z" fill="#EDA19D"/>
<path d="M1285.32 261.84C1280.93 288.213 1303.63 292.08 1308.2 265.72C1312.59 239.347 1289.88 235.493 1285.32 261.84Z" fill="#EDA19D"/>
<path d="M1295.63 265.12C1294.01 369.066 1167.33 369.053 1165.73 265.106C1154.21 158.706 1303.71 157.666 1295.63 265.12Z" fill="#F4D2C6"/>
<mask id="mask5_10_3" style="mask-type:luminance" maskUnits="userSpaceOnUse" x="1165" y="184" width="131" height="160">
<path d="M1295.63 265.12C1294.01 369.066 1167.33 369.053 1165.73 265.106C1154.21 158.706 1303.71 157.666 1295.63 265.12Z" fill="white"/>
</mask>
<g mask="url(#mask5_10_3)">
<path d="M1171.35 227.693C1171.35 227.693 1220.44 237.84 1286.27 219.56L1279.15 196.04L1183.35 199.44L1171.35 223.68" fill="#EDA19D"/>
</g>
<path d="M1264.33 284.213C1247.43 284.213 1213.93 284.213 1197.01 284.213C1205.13 307.386 1187.41 423.493 1187.41 423.493C1209.12 423.493 1252.24 423.493 1273.93 423.493C1273.93 423.493 1256.21 307.386 1264.33 284.213Z" fill="#F4D2C6"/>
<path d="M1197.93 333.36C1197.93 333.36 1228.44 356.893 1263.41 333.36L1265.25 354.427C1265.25 354.427 1227.6 372.027 1196.08 354.64L1197.93 333.36Z" fill="#EDA19D"/>
<path d="M1174.53 209.08C1174.53 209.08 1259.47 217.533 1281.37 204.467C1303.28 191.4 1298.67 147.2 1298.67 147.2C1286.21 149.187 1145.11 145.733 1174.53 209.08Z" fill="#59445A"/>
<path d="M1176.15 180.693C1176.15 180.693 1152.43 187.813 1149.57 197.547C1146.73 207.267 1166.61 244.867 1166.61 244.867C1171.96 244.813 1176.57 241.12 1177.77 235.92L1185.16 204.187L1176.15 180.693Z" fill="#59445A"/>
<path d="M1285.03 180.693C1285.03 180.693 1308.76 187.813 1311.6 197.546C1314.45 207.266 1294.57 244.867 1294.57 244.867C1289.2 245.013 1284.25 240.467 1283.4 235.907C1283.25 235.28 1276.01 204.187 1276.01 204.187L1285.03 180.693Z" fill="#59445A"/>
<path d="M1276.01 206.853C1276.01 206.853 1295.19 195.76 1295.63 184.72C1295.63 184.72 1302.87 211.333 1276.01 206.853Z" fill="#34254B"/>
<path d="M1096.32 1580L1090.03 1602.07L1021.98 1631.23C1013.87 1634.71 1008.61 1642.67 1008.61 1651.49H1149.15L1143.81 1580H1096.32Z" fill="#152E60"/>
<path d="M1364.47 1580L1370.77 1602.07L1438.83 1631.23C1446.93 1634.71 1452.19 1642.67 1452.19 1651.49H1311.65L1316.99 1580H1364.47Z" fill="#152E60"/>
<path d="M1365.17 500.947C1352.36 415.6 1287.17 372.827 1214.15 382.293C1155.83 380.147 1103.28 439.453 1096.03 501.04C1095.09 507.213 1048.43 815.449 1048.43 815.449H1412.77L1365.17 500.947Z" fill="#4292F3"/>
<mask id="mask6_10_3" style="mask-type:luminance" maskUnits="userSpaceOnUse" x="1048" y="380" width="365" height="436">
<path d="M1365.17 500.947C1352.36 415.6 1287.17 372.827 1214.15 382.293C1155.83 380.147 1103.28 439.453 1096.03 501.04C1095.09 507.213 1048.43 815.449 1048.43 815.449H1412.77L1365.17 500.947Z" fill="white"/>
</mask>
<g mask="url(#mask6_10_3)">
<path d="M1192.71 823.284L1259.8 751.417L1119.27 523.267L1167.23 735.093L1023.28 836.36L1192.71 823.284Z" fill="#3C7ED7"/>
</g>
<path d="M1219.8 748.728L945.992 870.823L845.455 645.36L1119.27 523.267L1219.8 748.728Z" fill="#F3AC4A"/>
<path d="M1018.76 608.72L976.195 627.707L961.079 593.8L1003.64 574.827L1018.76 608.72Z" fill="#FDF1E6"/>
<path d="M922.537 836.36C937.016 839.532 964.919 838.597 967.628 858.359L922.537 860.633V836.36Z" fill="#F4D2C6"/>
<path d="M1192.71 384.6C1205.87 423.6 1255.51 423.587 1268.64 384.6C1268.64 384.6 1236.16 367.027 1192.71 384.6Z" fill="#F4D2C6"/>
<path d="M1071.93 815.52H1391.37L1073.32 877.324L1071.93 815.52Z" fill="#2A437D"/>
<path d="M1192.71 384.6L1228.93 413.96L1213.95 423.44C1190.01 436.013 1186.13 402.893 1180.32 388.133C1180.32 388.133 1186.63 385.373 1192.71 384.6Z" fill="#F3F5FB"/>
<path d="M1238.01 413.253L1252.12 422.013C1262.01 428.146 1275 422.466 1277.2 411.04L1281.57 388.373C1281.57 388.373 1271.69 385.093 1268.64 384.6L1238.01 413.253Z" fill="#F3F5FB"/>
<path d="M810.209 1651.49H398.932V1154.59H810.209V1651.49Z" fill="#F3AC4A"/>
<path d="M636.344 1202.8H572.797V1154.59H636.344V1202.8Z" fill="#FDF1E6"/>
<path d="M1025.03 1651.49H810.209V1154.59H1025.03V1651.49Z" fill="#F08F3C"/>
<path d="M956.376 1202.8H901.937V1154.59H956.376V1202.8Z" fill="#FDF1E6"/>
<path d="M2464.37 333.36H1979.72C1966.51 333.36 1955.8 322.653 1955.8 309.453V149.12C1955.8 135.907 1966.51 125.2 1979.72 125.2H2464.37C2477.59 125.2 2488.29 135.907 2488.29 149.12V309.453C2488.29 322.653 2477.59 333.36 2464.37 333.36Z" fill="white"/>
<path d="M2447.49 185.893H1996.6V159.773H2447.49V185.893Z" fill="#DEEEFC"/>
<path d="M2447.49 242.333H1996.6V216.227H2447.49V242.333Z" fill="#DEEEFC"/>
<path d="M2295.92 298.787H1996.6V272.68H2295.92V298.787Z" fill="#DEEEFC"/>
<path d="M792.957 367.747C756.632 675.781 581.94 675.501 545.693 367.733C548.465 205.24 790.204 205.24 792.957 367.747Z" fill="#324D90"/>
<path d="M735.504 361.24C734.017 448.227 604.621 448.213 603.148 361.24C604.635 274.253 734.031 274.267 735.504 361.24Z" fill="white"/>
<path d="M818.164 980.586H437.221C430.456 980.586 424.972 975.106 424.972 968.346V835.534C424.972 828.769 430.456 823.284 437.221 823.284H818.164C824.929 823.284 830.413 828.769 830.413 835.534V968.346C830.413 975.106 824.929 980.586 818.164 980.586Z" fill="#D4E8FC"/>
<path d="M799.233 964.72H425.47C415.285 964.72 407.028 956.453 407.028 946.28V822.625C407.028 812.44 415.285 804.184 425.47 804.184H799.233C809.418 804.184 817.674 812.44 817.674 822.625V946.28C817.674 956.453 809.418 964.72 799.233 964.72Z" fill="white"/>
<path d="M786.216 850.984H438.487V830.848H786.216V850.984Z" fill="#DEEEFC"/>
<path d="M786.216 894.517H438.487V874.381H786.216V894.517Z" fill="#DEEEFC"/>
<path d="M669.327 938.053H438.487V917.916H669.327V938.053Z" fill="#DEEEFC"/>
<path d="M1885.24 1223.83H1679.96V1367.63H1885.24C1894.36 1367.63 1901.76 1360.23 1901.76 1351.11V1240.35C1901.76 1231.23 1894.36 1223.83 1885.24 1223.83Z" fill="#F08F3C"/>
<path d="M1865.61 1346.4H1530.81C1521.68 1346.4 1514.29 1339.01 1514.29 1329.88V1219.12C1514.29 1210 1521.68 1202.6 1530.81 1202.6H1865.61C1874.73 1202.6 1882.12 1210 1882.12 1219.12V1329.88C1882.12 1339.01 1874.73 1346.4 1865.61 1346.4Z" fill="white"/>
<path d="M1853.95 1244.53H1542.47V1226.49H1853.95V1244.53Z" fill="#DEEEFC"/>
<path d="M1853.95 1283.52H1542.47V1265.48H1853.95V1283.52Z" fill="#DEEEFC"/>
<path d="M1749.24 1322.52H1542.47V1304.48H1749.24V1322.52Z" fill="#DEEEFC"/>
<path d="M2827.17 284.213L2751.56 436.307C2750.05 439.36 2745.65 439.253 2744.29 436.133L2724.83 391.68L2827.17 284.213Z" fill="#324D90"/>
<path d="M2724.83 391.68L2672.15 374.173L2827.17 284.213L2724.83 391.68Z" fill="#4292F3"/>
<path d="M2827.17 284.213L2757.32 403.547L2820.07 424.56L2827.17 284.213Z" fill="#4292F3"/>
<path d="M2736.43 474.333L2734.44 473.587C2735.32 471.267 2736.19 468.947 2737.04 466.64L2739.03 467.373C2738.17 469.693 2737.31 472.013 2736.43 474.333Z" fill="#324D90"/>
<path d="M2728.6 494.187L2726.64 493.387C2728.52 488.813 2730.37 484.16 2732.16 479.547L2734.13 480.307C2732.35 484.933 2730.48 489.6 2728.6 494.187ZM2720.2 513.813L2718.27 512.947C2720.27 508.467 2722.25 503.867 2724.19 499.28L2726.15 500.093C2724.2 504.693 2722.21 509.307 2720.2 513.813ZM2711.24 533.173L2709.32 532.253C2711.47 527.813 2713.59 523.28 2715.64 518.76L2717.57 519.64C2715.51 524.173 2713.37 528.72 2711.24 533.173ZM2701.68 552.227L2699.8 551.24C2702.07 546.893 2704.33 542.44 2706.53 537.987L2708.43 538.92C2706.23 543.387 2703.96 547.867 2701.68 552.227ZM2691.51 570.947L2689.65 569.907C2692.07 565.64 2694.48 561.253 2696.83 556.88L2698.69 557.88C2696.35 562.267 2693.92 566.667 2691.51 570.947ZM2680.67 589.333L2678.87 588.213C2681.43 584.04 2684 579.733 2686.49 575.44L2688.32 576.507C2685.83 580.813 2683.24 585.133 2680.67 589.333ZM2669.15 607.307L2667.37 606.12C2670.11 602.053 2672.83 597.853 2675.49 593.64L2677.28 594.76C2674.61 599 2671.88 603.213 2669.15 607.307ZM2656.89 624.813L2655.17 623.56C2658.08 619.587 2660.99 615.493 2663.8 611.413L2665.55 612.613C2662.72 616.72 2659.8 620.827 2656.89 624.813ZM2643.87 641.76L2642.21 640.44C2645.29 636.627 2648.36 632.667 2651.37 628.68L2653.07 629.96C2650.04 633.96 2646.95 637.933 2643.87 641.76ZM2630.04 658.089L2628.47 656.68C2631.72 653.027 2634.99 649.227 2638.17 645.387L2639.8 646.733C2636.6 650.6 2633.32 654.42 2630.04 658.089ZM2370.01 672.485C2365.67 670.816 2360.77 670.659 2356.05 672.025L2355.45 669.989C2360.61 668.495 2366 668.672 2370.77 670.507L2370.01 672.485ZM2615.39 673.675L2613.88 672.18C2617.33 668.711 2620.79 665.089 2624.17 661.417L2625.73 662.853C2622.33 666.545 2618.85 670.187 2615.39 673.675ZM2340.53 684.58L2338.68 683.556C2341.2 678.992 2344.89 675.207 2349.36 672.608L2350.43 674.441C2346.29 676.847 2342.87 680.353 2340.53 684.58ZM2383.75 686.852C2381.93 682.411 2378.83 678.107 2375.29 675.455L2376.59 673.772C2380.41 676.649 2383.76 681.255 2385.71 686.043L2383.75 686.852ZM2599.85 688.397L2598.44 686.816C2602.08 683.564 2605.75 680.152 2609.33 676.671L2610.81 678.192C2607.2 681.693 2603.52 685.127 2599.85 688.397ZM2583.44 702.121L2582.13 700.451C2585.99 697.441 2589.85 694.269 2593.64 691.021L2595.01 692.631C2591.21 695.899 2587.31 699.092 2583.44 702.121ZM2335.51 704.905C2334.71 699.841 2334.76 694.577 2336.16 689.673L2338.2 690.253C2336.88 694.863 2336.85 699.813 2337.6 704.575L2335.51 704.905ZM2387.76 707.556L2385.67 707.211C2386.47 702.389 2386.49 697.444 2385.55 692.765L2387.63 692.343C2388.63 697.275 2388.6 702.48 2387.76 707.556ZM2566.13 714.695L2564.95 712.936C2569 710.203 2573.08 707.305 2577.07 704.327L2578.33 706.024C2574.32 709.025 2570.21 711.941 2566.13 714.695ZM2343.56 724.935C2340.65 720.52 2338.44 715.923 2336.99 711.271L2339.01 710.641C2340.4 715.103 2342.53 719.52 2345.33 723.768L2343.56 724.935ZM2547.96 725.959L2546.91 724.115C2551.17 721.695 2555.45 719.111 2559.63 716.435L2560.76 718.22C2556.56 720.917 2552.25 723.52 2547.96 725.959ZM2379.97 727.671L2378.17 726.555C2380.72 722.429 2382.87 717.947 2384.25 713.296L2386.28 713.908C2384.84 718.736 2382.63 723.389 2379.97 727.671ZM2009.71 735.477L2009.64 733.357C2014.51 733.189 2019.6 733.12 2024.6 733.16L2024.59 735.28C2019.64 735.249 2014.56 735.316 2009.71 735.477ZM2528.99 735.747L2528.09 733.825C2532.53 731.76 2536.99 729.525 2541.35 727.187L2542.35 729.055C2537.96 731.413 2533.47 733.665 2528.99 735.747ZM2045.81 735.944C2040.77 735.667 2035.77 735.473 2030.96 735.369L2031 733.251C2035.84 733.355 2040.87 733.548 2045.93 733.827L2045.81 735.944ZM1988.53 736.847L1988.32 734.736C1993.19 734.263 1998.2 733.891 2003.24 733.631L2003.35 735.747C1998.35 736.007 1993.36 736.376 1988.53 736.847ZM2067.03 737.541C2061.97 737.064 2056.99 736.659 2052.2 736.333L2052.33 734.217C2057.15 734.544 2062.16 734.952 2067.23 735.431L2067.03 737.541ZM1967.51 739.648L1967.15 737.559C1971.99 736.732 1976.97 736.013 1981.95 735.424L1982.2 737.531C1977.25 738.115 1972.32 738.828 1967.51 739.648ZM2088.17 739.885C2083.11 739.247 2078.13 738.672 2073.39 738.176L2073.61 736.067C2078.36 736.565 2083.36 737.141 2088.44 737.78L2088.17 739.885ZM2358.23 740.732C2354.23 737.611 2350.59 734.056 2347.41 730.169L2349.05 728.827C2352.13 732.592 2355.65 736.035 2359.53 739.06L2358.23 740.732ZM2109.27 742.784C2104.08 742.015 2099.25 741.333 2094.52 740.704L2094.8 738.603C2099.53 739.233 2104.37 739.916 2109.59 740.687L2109.27 742.784ZM2509.25 743.929L2508.53 741.939C2513.13 740.256 2517.77 738.403 2522.31 736.428L2523.15 738.372C2518.57 740.364 2513.91 742.233 2509.25 743.929ZM1946.76 744.016L1946.24 741.96C1951.04 740.753 1955.95 739.66 1960.84 738.708L1961.24 740.791C1956.39 741.733 1951.52 742.819 1946.76 744.016ZM2130.32 746.068C2125.4 745.269 2120.49 744.489 2115.6 743.739L2115.92 741.641C2120.83 742.395 2125.73 743.176 2130.65 743.976L2130.32 746.068ZM2151.33 749.569C2146.43 748.739 2141.52 747.913 2136.63 747.103L2136.97 745.012C2141.87 745.823 2146.77 746.647 2151.68 747.477L2151.33 749.569ZM1926.44 750.032L1925.76 748.025C1930.44 746.427 1935.25 744.939 1940.05 743.601L1940.63 745.644C1935.85 746.969 1931.09 748.447 1926.44 750.032ZM2488.88 750.385L2488.33 748.339C2493.08 747.06 2497.87 745.615 2502.53 744.044L2503.21 746.053C2498.49 747.639 2493.68 749.096 2488.88 750.385ZM2377.03 751.236C2372.2 749.316 2367.77 747.137 2363.53 744.472L2364.67 742.683L2364.95 742.851L2364.4 742.191C2368.24 739.031 2371.68 735.504 2374.6 731.712L2376.28 733.005C2373.35 736.813 2369.92 740.359 2366.08 743.549C2369.75 745.72 2373.65 747.619 2377.8 749.264L2377.03 751.236ZM2172.35 753.128C2167.44 752.303 2162.53 751.471 2157.64 750.639L2158 748.548C2162.89 749.379 2167.79 750.212 2172.69 751.037L2172.35 753.128ZM2468.01 755.035L2467.64 752.948C2472.52 752.068 2477.37 751.069 2482.17 749.909L2482.67 751.969C2477.83 753.14 2472.95 754.147 2468.01 755.035ZM2347.4 755.072L2346.53 753.141C2351.16 751.041 2355.48 748.627 2359.36 745.967L2360.56 747.716C2356.57 750.445 2352.15 752.921 2347.4 755.072ZM2193.37 756.591C2188.47 755.805 2183.56 755.001 2178.65 754.185L2179 752.093C2183.89 752.909 2188.8 753.713 2193.71 754.497L2193.37 756.591ZM2397.72 756.983C2392.61 756.073 2387.69 754.869 2383.11 753.405L2383.76 751.385C2388.25 752.821 2393.07 754.003 2398.09 754.896L2397.72 756.983ZM1906.68 757.713L1905.83 755.771C1910.39 753.775 1915.07 751.892 1919.71 750.175L1920.44 752.164C1915.84 753.867 1911.2 755.735 1906.68 757.713ZM2446.85 758.048L2446.64 755.939C2451.41 755.452 2456.37 754.804 2461.36 754.013L2461.69 756.107C2456.67 756.904 2451.67 757.557 2446.85 758.048ZM2419.05 759.125C2413.89 758.961 2408.85 758.568 2404.09 757.956L2404.36 755.853C2409.05 756.456 2414.03 756.844 2419.12 757.007L2419.05 759.125ZM2425.48 759.216V757.096C2430.24 757.08 2435.23 756.879 2440.29 756.5L2440.45 758.613C2435.33 758.997 2430.31 759.199 2425.48 759.216ZM2214.45 759.804C2209.53 759.095 2204.61 758.353 2199.69 757.588L2200.03 755.493C2204.93 756.257 2209.84 756.997 2214.76 757.705L2214.45 759.804ZM2327.07 761.959L2326.57 759.899C2331.53 758.695 2336.28 757.237 2340.69 755.565L2341.44 757.548C2336.95 759.251 2332.12 760.735 2327.07 761.959ZM2235.6 762.617C2230.85 762.044 2225.88 761.397 2220.8 760.697L2221.08 758.597C2226.15 759.296 2231.12 759.94 2235.85 760.512L2235.6 762.617ZM2256.81 764.873C2252.03 764.439 2247.03 763.929 2241.96 763.359L2242.19 761.253C2247.24 761.821 2252.23 762.329 2257 762.761L2256.81 764.873ZM2305.93 765.508L2305.72 763.399C2310.77 762.885 2315.71 762.163 2320.37 761.252L2320.79 763.333C2316.04 764.256 2311.05 764.988 2305.93 765.508ZM2278.12 766.353C2273.16 766.187 2268.16 765.813 2263.19 765.42L2263.36 763.307C2268.29 763.696 2273.25 764.068 2278.2 764.235L2278.12 766.353ZM2285.91 766.489L2284.55 766.485L2284.56 764.365C2289.52 764.397 2294.57 764.251 2299.39 763.928L2299.52 766.044C2295.09 766.34 2290.51 766.489 2285.91 766.489ZM1887.61 767L1886.61 765.133C1891 762.768 1895.51 760.507 1899.99 758.413L1900.88 760.333C1896.44 762.411 1891.97 764.653 1887.61 767ZM1869.35 777.784L1868.2 776.001C1872.41 773.291 1876.72 770.681 1881 768.243L1882.05 770.084C1877.8 772.504 1873.53 775.095 1869.35 777.784ZM1851.93 789.916L1850.67 788.216C1855.09 784.921 1858.75 782.309 1862.85 779.532L1864.04 781.288C1859.96 784.047 1856.33 786.643 1851.93 789.916ZM1835.11 802.927L1833.8 801.263C1837.55 798.299 1841.57 795.135 1845.56 792.08L1846.85 793.763C1842.87 796.809 1838.85 799.968 1835.11 802.927ZM1818.33 816.084L1817.04 814.404C1821.17 811.236 1825.27 808.004 1828.79 805.224L1830.09 806.888C1826.57 809.672 1822.47 812.909 1818.33 816.084ZM1801.11 828.716L1799.91 826.969C1803.68 824.372 1807.63 821.525 1811.96 818.264L1813.24 819.96C1808.87 823.239 1804.91 826.103 1801.11 828.716ZM1782.95 840.061L1781.92 838.207C1786.05 835.92 1790.2 833.404 1794.61 830.519L1795.77 832.295C1791.32 835.207 1787.12 837.747 1782.95 840.061ZM1763.53 849.157L1762.79 847.173C1767.21 845.501 1771.76 843.487 1776.31 841.185L1777.27 843.079C1772.65 845.413 1768.03 847.459 1763.53 849.157ZM1742.85 854.861L1742.49 852.773C1747.23 851.956 1752.04 850.772 1756.81 849.253L1757.45 851.275C1752.6 852.821 1747.68 854.028 1742.85 854.861Z" fill="#324D90"/>
<path d="M1728.96 856.287L1728.88 854.167C1731.33 854.087 1733.8 853.913 1736.21 853.653L1736.44 855.76C1733.97 856.028 1731.45 856.204 1728.96 856.287Z" fill="#324D90"/>
<path d="M1659.35 795.662C1658.64 790.672 1658.45 785.634 1658.81 780.632L1660.93 780.784C1660.57 785.637 1660.76 790.522 1661.44 795.365L1659.35 795.662ZM1665.45 816.213C1663.33 811.68 1661.68 806.9 1660.53 802.005L1662.6 801.524C1663.71 806.274 1665.31 810.913 1667.37 815.314L1665.45 816.213ZM1677.39 834.028C1673.96 830.317 1670.99 826.278 1668.44 821.93L1670.28 820.864C1672.73 825.078 1675.63 828.992 1678.95 832.589L1677.39 834.028ZM1694.11 847.45C1689.76 844.917 1685.68 841.929 1681.97 838.57L1683.4 836.997C1687 840.258 1690.96 843.16 1695.17 845.62L1694.11 847.45ZM1714.03 855.373C1709.17 854.26 1704.4 852.604 1699.81 850.453L1700.72 848.533C1705.16 850.621 1709.8 852.226 1714.51 853.305L1714.03 855.373Z" fill="#324D90"/>
<path d="M0.162598 1653.12C1135.65 1648.65 2321.88 1648.63 3457.36 1653.12C2321.87 1657.63 1135.64 1657.59 0.162598 1653.12Z" fill="#152E60"/>
</svg>
