<svg width="2940" height="1743" viewBox="0 0 2940 1743" fill="none" xmlns="http://www.w3.org/2000/svg">
<path d="M124.957 1735.37C124.957 1735.37 -117.647 1209.85 141.092 896.08C397.333 585.333 702.309 608.28 903.36 631.213C964.16 638.146 1015.45 645.08 1053.03 642.8C1214.85 632.933 1227.6 302.813 1711.11 256.44C2084.95 220.573 2710.16 336.546 2579.17 970.973C2479.59 1453.33 2937.8 1203.97 2829.92 1736.84L124.957 1735.37Z" fill="#EBF2F9"/>
<path d="M1508.51 0.813151L1657.79 0.359896L1658.2 133.453H1508.91L1508.51 0.813151Z" fill="#D3671E"/>
<path d="M1463.71 1.05326L1583.23 0.586596L1583.55 133.533L1464.04 133.453L1463.71 1.05326Z" fill="#F1A34F"/>
<path d="M1463.81 43.3865L1463.51 43.1464L1463.4 1.05314H1463.71L1463.81 43.3865Z" fill="#EFC2A1"/>
<path d="M1583.55 132.2H1581.79L1463.81 43.3865L1463.71 1.05321L1583.23 0.586541L1583.55 132.2Z" fill="#E78B37"/>
<path d="M561.408 1455.87L874.707 1454.91L875.56 1734.21H562.264L561.408 1455.87Z" fill="#D3671E"/>
<path d="M467.408 1456.35L718.224 1455.39L718.909 1734.37L468.093 1734.21L467.408 1456.35Z" fill="#F1A34F"/>
<path d="M467.627 1545.19L466.979 1544.69L466.761 1456.36L467.408 1456.35L467.627 1545.19Z" fill="#E3BA9D"/>
<path d="M718.909 1734.37L467.627 1545.19L467.408 1456.35L718.224 1455.39L718.909 1734.37Z" fill="#E78B37"/>
<path d="M1480.09 1511.43L1710.48 1510.72L1711.11 1715.04L1480.72 1715.75L1480.09 1511.43Z" fill="#D3671E"/>
<path d="M1410.96 1511.77L1595.41 1511.07L1595.91 1715.4L1411.47 1716.11L1410.96 1511.77Z" fill="#F1A34F"/>
<path d="M1595.91 1713.84H1593.84L1412.12 1577.84L1411.91 1511.77L1595.41 1511.07L1595.91 1713.84Z" fill="#E78B37"/>
<path d="M950.88 1107.53L1181.27 1106.81L1181.89 1312.21L951.52 1311.85L950.88 1107.53Z" fill="#D3671E"/>
<path d="M881.76 1107.88L1066.2 1107.17L1066.71 1312.21H882.267L881.76 1107.88Z" fill="#F1A34F"/>
<path d="M1066.71 1311.49L882.253 1173.45V1107.88L950.88 1107.61L1066.2 1107.17L1066.71 1311.49Z" fill="#E78B37"/>
<path d="M1396.72 979.6L1627.11 978.88L1627.73 1312.21L1397.35 1312.92L1396.72 979.6Z" fill="#D3671E"/>
<path d="M1327.59 979.946L1512.04 979.24L1512.53 1312.05H1328.09L1327.59 979.946Z" fill="#F1A34F"/>
<path d="M1327.69 1045.23L1327.28 1044.92L1327.12 979.946H1327.59L1327.69 1045.23Z" fill="#E3BA9D"/>
<path d="M1512.53 1183.56L1512.35 1183.43L1512.04 979.24L1512.53 1183.56Z" fill="#D5671A"/>
<path d="M1512.35 1183.43L1327.69 1045.23L1327.59 979.946L1512.04 979.24L1512.35 1183.43Z" fill="#E78B37"/>
<path d="M1242.04 705.893L1472.43 705.187L1473.05 910.573H1242.67L1242.04 705.893Z" fill="#D3671E"/>
<path d="M1172.92 706.24L1357.36 705.533L1357.85 910.693L1173.41 910.573L1172.92 706.24Z" fill="#F1A34F"/>
<path d="M1173.08 771.573L1172.6 771.213L1172.44 706.253H1172.92L1173.08 771.573Z" fill="#E3BA9D"/>
<path d="M1357.85 910.693L1173.08 771.573L1172.92 706.24L1357.36 705.533L1357.85 910.693Z" fill="#E78B37"/>
<path d="M1053.03 1403.65L1411.57 1402.55L1412.56 1720.55L1054.01 1721.64L1053.03 1403.65Z" fill="#D3671E"/>
<path d="M945.453 1404.21L1232.49 1403.11L1233.28 1721.09L946.24 1722.2L945.453 1404.21Z" fill="#F1A34F"/>
<path d="M945.707 1505.88L944.96 1505.32L944.72 1404.21H945.453L945.707 1505.88Z" fill="#E3BA9D"/>
<path d="M1233.27 1713.84H1223.6L945.707 1505.88L945.453 1404.21L1232.49 1403.11L1233.27 1713.84Z" fill="#E78B37"/>
<path d="M1708.44 1713.84H882.253V151.026H1708.44V1713.84ZM862.653 132.2V1734.37H1728.04V132.2H862.653Z" fill="#699FF0"/>
<path d="M1728.04 1734.95H1845.65V132.2H1728.04V1734.95Z" fill="#466AA5"/>
<path d="M1719 552.667H871.707V508.933H1719V552.667Z" fill="#699FF0"/>
<path d="M1719 954.307H871.707V910.573H1719V954.307Z" fill="#699FF0"/>
<path d="M1719 1355.93H871.707V1312.21H1719V1355.93Z" fill="#699FF0"/>
<path d="M941.027 1741.87C940.013 1741.87 938.987 1741.75 937.947 1741.51C930.786 1739.81 926.347 1732.64 928.04 1725.47L1224.23 469.893C1225.92 462.72 1233.11 458.28 1240.27 459.973C1247.44 461.667 1251.88 468.84 1250.19 476.013L953.987 1731.6C952.547 1737.73 947.067 1741.87 941.027 1741.87Z" fill="#2E3552"/>
<path d="M674.36 1741.87C673.345 1741.87 672.316 1741.75 671.287 1741.51C664.12 1739.81 659.68 1732.64 661.371 1725.47L957.56 469.893C959.253 462.72 966.44 458.28 973.6 459.973C980.773 461.667 985.213 468.84 983.52 476.013L687.324 1731.6C685.877 1737.73 680.403 1741.87 674.36 1741.87Z" fill="#2E3552"/>
<path d="M1071.87 1163.13H805.68C798.317 1163.13 792.348 1157.16 792.348 1149.8C792.348 1142.44 798.317 1136.47 805.68 1136.47H1071.87C1079.23 1136.47 1085.2 1142.44 1085.2 1149.8C1085.2 1157.16 1079.23 1163.13 1071.87 1163.13Z" fill="#2E3552"/>
<path d="M1026.53 1368.47H763.66C756.297 1368.47 750.327 1362.49 750.327 1355.13C750.327 1347.77 756.297 1341.8 763.66 1341.8H1026.53C1033.89 1341.8 1039.87 1347.77 1039.87 1355.13C1039.87 1362.49 1033.89 1368.47 1026.53 1368.47Z" fill="#2E3552"/>
<path d="M1125.2 957.8H844.547C837.187 957.8 831.213 951.826 831.213 944.466C831.213 937.106 837.187 931.133 844.547 931.133H1125.2C1132.56 931.133 1138.53 937.106 1138.53 944.466C1138.53 951.826 1132.56 957.8 1125.2 957.8Z" fill="#2E3552"/>
<path d="M1159.87 749.8H857.44C850.08 749.8 844.106 743.826 844.106 736.466C844.106 729.106 850.08 723.133 857.44 723.133H1159.87C1167.23 723.133 1173.2 729.106 1173.2 736.466C1173.2 743.826 1167.23 749.8 1159.87 749.8Z" fill="#2E3552"/>
<path d="M977.2 1575.13H715.903C708.539 1575.13 702.569 1569.16 702.569 1561.8C702.569 1554.44 708.539 1548.47 715.903 1548.47H977.2C984.56 1548.47 990.533 1554.44 990.533 1561.8C990.533 1569.16 984.56 1575.13 977.2 1575.13Z" fill="#2E3552"/>
<path d="M1213.2 544.466H910.773C903.413 544.466 897.44 538.493 897.44 531.133C897.44 523.773 903.413 517.8 910.773 517.8H1213.2C1220.56 517.8 1226.53 523.773 1226.53 531.133C1226.53 538.493 1220.56 544.466 1213.2 544.466Z" fill="#2E3552"/>
<path d="M1020.84 365.24C1020.84 365.24 1021.8 336.347 1026.68 328.12C1031.55 319.88 1042.4 309.773 1048.23 313.36C1054.05 316.946 1054.83 345.16 1052.81 350.133C1050.8 355.106 1036.57 373.506 1036.57 373.506L1020.84 365.24Z" fill="#FFB27D"/>
<path d="M1031.45 362.146C1023.11 357.453 1019.55 361.24 1019.55 361.24C1019.55 361.24 962.08 441.493 956.2 447.84C950.32 454.2 853.733 486.573 853.733 486.573C853.733 486.573 814.573 497.973 811.187 520.893C808.24 540.8 818.587 554.026 830.427 562.466C844.533 572.52 863.4 572.76 877.907 563.293C910.467 542.026 975.053 499.2 985.88 487.04C1009.99 459.96 1041.49 371.48 1041.49 371.48C1041.49 371.48 1038.01 365.826 1031.45 362.146Z" fill="#AA413E"/>
<path d="M1025.77 229.72L1256.16 229.013L1256.79 433.333L1026.41 434.053L1025.77 229.72Z" fill="#D3671E"/>
<path d="M956.653 230.08L1141.09 229.373L1141.6 433.693L957.16 434.4L956.653 230.08Z" fill="#F1A34F"/>
<path d="M956.813 295.4L956.333 295.04L956.173 230.08H956.653L956.813 295.4Z" fill="#EFC2A1"/>
<path d="M1141.6 433.693L956.813 295.4L956.653 230.08L1141.09 229.373L1141.6 433.693Z" fill="#E78B37"/>
<path d="M1159.64 412.84C1159.64 412.84 1159.52 383.946 1164.09 375.533C1168.65 367.12 1179.11 356.613 1185.07 359.973C1191.03 363.333 1192.85 391.506 1191.03 396.546C1189.2 401.6 1175.67 420.52 1175.67 420.52L1159.64 412.84Z" fill="#FFB27D"/>
<path d="M801.247 1343.2C794.804 1337.68 798.665 1306.77 798.665 1306.77C798.665 1306.77 831.853 1280.23 836.413 1300.56C840.973 1320.88 867.933 1330.01 883.293 1332.49C893.52 1334.16 896.933 1339.69 898.067 1343.2H801.247Z" fill="#2C3A64"/>
<path d="M797.537 1308.21C828.267 1312.99 839.493 1305.67 839.493 1305.67C839.093 1275.41 851.973 1218.71 864.76 1140.36C881.627 1037.05 900.96 904.653 915.413 830.133C923.733 787.28 929.267 759.746 929.267 759.746L904.147 759.253L778.92 756.786C778.92 756.786 788.289 895.386 785.728 963.84C785.111 980.173 783.811 992.533 781.551 998.04C760.209 1049.91 797.537 1308.21 797.537 1308.21Z" fill="#35488B"/>
<path d="M785.728 963.84C802.741 995.666 848.507 1091.57 864.373 1142.73C881.24 1039.44 900.96 904.653 915.413 830.133C914.693 801.973 911.333 777.36 904.146 759.253L778.92 756.787C778.92 756.787 788.289 895.386 785.728 963.84Z" fill="#2C3A64"/>
<path d="M906.72 1343.2C900.28 1337.68 904.147 1306.77 904.147 1306.77C904.147 1306.77 937.333 1280.23 941.893 1300.56C946.453 1320.88 973.413 1330.01 988.76 1332.49C999 1334.16 1002.41 1339.69 1003.55 1343.2H906.72Z" fill="#2C3A64"/>
<path d="M983.707 756.733C983.707 756.733 934.507 1211.95 944.253 1303.75C944.253 1303.75 933.733 1311.99 902.707 1310.09C902.707 1310.09 841.093 1075.36 858.413 1005.41C865.773 975.666 833.72 767.533 833.72 767.533L983.707 756.733Z" fill="#35488B"/>
<path d="M862.587 431.213C862.587 431.213 925.147 462.466 956.173 448.213C956.173 448.213 943.147 431.333 928.547 424.333C928.853 418.76 929.027 413.733 929.12 409.293C929.4 394.493 928.653 386.16 928.653 386.16L901.68 366.533L883.373 353.213C884.427 361.466 884.587 369.066 884.12 376.066C881.693 412.066 862.587 431.213 862.587 431.213Z" fill="#FFB27D"/>
<path d="M884.12 376.066C884.12 376.066 898.707 405.146 929.12 409.293C929.4 394.493 928.653 386.16 928.653 386.16L901.68 366.533C889.88 370.973 884.12 376.066 884.12 376.066Z" fill="#ED975D"/>
<path d="M935.64 384.28C935.64 384.28 879.64 404.213 867.76 369.16C855.88 334.093 840.653 313.053 875.893 298.84C911.146 284.626 922.666 295.64 929.48 306.373C936.293 317.106 949.893 378.186 935.64 384.28Z" fill="#FFB27D"/>
<path d="M774.96 756.746C783.728 775 977.787 774.187 987.373 761.32C991.28 756.08 995.747 703.693 998.307 642.8C999.72 609.053 1000.55 572.693 1000.39 540.306C1000.09 487.44 997.133 445.12 989.68 441.893C948.093 423.853 922.387 412.373 868.053 414.027C851.307 414.547 836.133 424.227 828.84 439.307C815.787 466.32 797.263 514.187 795.852 570.72C793.66 657.827 763.92 733.733 774.96 756.746Z" fill="#C65447"/>
<path d="M937.6 504.426C937.6 504.426 943.92 595.52 998.306 642.8C999.72 609.053 1000.55 572.693 1000.39 540.306C984.133 518.573 962.693 502.933 937.6 504.426Z" fill="#AA413E"/>
<path d="M910.853 415.973C910.853 415.973 970.533 416.346 989.266 433.733C1002.68 446.2 1092.28 507.28 1097.76 506.36C1103.24 505.44 1155.41 401.506 1155.41 401.506C1155.41 401.506 1182.79 403.826 1187.36 415.68C1187.36 415.68 1162.47 548.28 1106.76 578.36C1106.76 578.36 965 557.44 923.226 510.867C901.693 486.88 910.853 415.973 910.853 415.973Z" fill="#C65447"/>
<path d="M933.147 279.013C933.147 279.013 929.84 312.466 919.8 321.6C909.747 330.733 912.4 343.293 911.307 345.12C910.2 346.947 899.813 341.573 897.973 344.653C893.773 351.733 900.347 356.893 904.507 358.6C908.653 360.32 893.893 389.026 883.053 390.08C864.32 391.92 835.373 340.093 832.92 324.906C829.733 305.04 840.973 274.067 873.227 275.587C923.907 277.987 934.173 267 933.147 279.013Z" fill="#2B478B"/>
<path d="M1895.16 1415.93L2253.71 1414.83L2254.69 1732.81L1896.15 1733.92L1895.16 1415.93Z" fill="#D3671E"/>
<path d="M1787.59 1416.49L2074.63 1415.39L2075.41 1733.37L1788.37 1734.48L1787.59 1416.49Z" fill="#F1A34F"/>
<path d="M1787.84 1518.15L1787.09 1517.6L1786.85 1416.49H1787.59L1787.84 1518.15Z" fill="#80696B"/>
<path d="M2075.41 1733.37L1787.84 1518.15L1787.59 1416.49L2074.63 1415.39L2075.41 1733.37Z" fill="#E78B37"/>
<path d="M2242.23 1529.59L2472.61 1528.87L2473.24 1733.2L2242.85 1733.91L2242.23 1529.59Z" fill="#D3671E"/>
<path d="M2173.11 1529.93L2357.55 1529.23L2358.04 1733.55L2173.6 1734.27L2173.11 1529.93Z" fill="#F1A34F"/>
<path d="M2173.27 1595.25L2172.79 1594.91L2172.63 1529.93H2173.11L2173.27 1595.25Z" fill="#D5671A"/>
<path d="M2358.04 1733.55L2173.27 1595.25L2173.11 1529.93L2357.55 1529.23L2358.04 1733.55Z" fill="#E78B37"/>
<path d="M2934.32 1742.31H5.68398C2.67998 1742.31 0.222656 1739.84 0.222656 1736.84C0.222656 1733.84 2.67998 1731.39 5.68398 1731.39H2934.32C2937.32 1731.39 2939.77 1733.84 2939.77 1736.84C2939.77 1739.84 2937.32 1742.31 2934.32 1742.31Z" fill="#2E3552"/>
</svg>
