<svg width="4867" height="2438" viewBox="0 0 4867 2438" fill="none" xmlns="http://www.w3.org/2000/svg">
<path d="M840.321 2428.77L153.191 2433.09C153.191 2433.09 -599.946 257.08 1243.49 18.3334C1803.49 -54.1866 2073.45 108.36 2342.21 270.92C2575.07 411.76 2807.03 552.6 3225.96 540.547C4948.61 490.96 5065.35 1740.08 4692.37 2428.77H840.321Z" fill="#FEF4E6" fill-opacity="0.06"/>
<path d="M1635.99 2181.76C1497.97 2246.19 1333.85 2186.52 1269.44 2048.49C1205.01 1910.48 1264.68 1746.36 1402.71 1681.95C1540.72 1617.52 1704.84 1677.19 1769.25 1815.21C1833.68 1953.23 1774.01 2117.35 1635.99 2181.76ZM1838.73 1680.16C1811.12 1645.05 1778.35 1615.31 1742 1591.57L1759.83 1485.55L1690.75 1460.43L1621.65 1435.31L1567.23 1528.03C1524.12 1522.87 1479.91 1524.63 1436.19 1533.8L1373.8 1446.23L1307.19 1477.31L1240.57 1508.4L1267.65 1612.47C1232.55 1640.08 1202.8 1672.85 1179.06 1709.2L1073.04 1691.37L1047.92 1760.47L1022.8 1829.55L1115.52 1883.99C1110.37 1927.08 1112.13 1971.29 1121.3 2015.01L1033.71 2077.4L1064.81 2144.01L1095.9 2210.63L1199.96 2183.55C1227.59 2218.65 1260.35 2248.4 1296.69 2272.13L1278.87 2378.16L1347.96 2403.28L1417.04 2428.4L1471.48 2335.68C1514.57 2340.84 1558.79 2339.08 1602.51 2329.91L1664.89 2417.49L1731.51 2386.4L1798.12 2355.31L1771.04 2251.24C1806.15 2223.63 1835.89 2190.85 1859.63 2154.51L1965.65 2172.33L1990.77 2103.25L2015.89 2034.16L1923.17 1979.73C1928.33 1936.63 1926.57 1892.41 1917.4 1848.69L2004.99 1786.31L1973.89 1719.69L1942.8 1653.08L1838.73 1680.16Z" fill="#FEC786"/>
<path d="M975.333 1552.6L942.16 1596.63C942.16 1596.63 931.567 1611.99 917.14 1604.04L904.611 1625.72C899.955 1633.79 890.216 1637.53 881.433 1634.44C877.14 1632.92 872.397 1630.6 867.704 1627.07C852.819 1615.85 853.166 1598.61 856.13 1592.11C859.095 1585.59 882.907 1561.72 882.907 1561.72L892.325 1548.27L932.272 1498.77L975.333 1552.6Z" fill="#FE9F73"/>
<path d="M922.808 1547.53C922.653 1547.43 922.541 1547.25 922.508 1547.04C922.44 1546.61 922.727 1546.23 923.151 1546.15C923.303 1546.13 938.407 1543.83 941.472 1555.99C941.576 1556.4 941.324 1556.81 940.909 1556.92C940.492 1557.03 940.071 1556.77 939.966 1556.36C937.25 1545.59 923.963 1547.6 923.399 1547.68C923.182 1547.72 922.971 1547.67 922.808 1547.53Z" fill="black"/>
<path d="M951.179 1563.08C951.005 1562.95 950.888 1562.75 950.872 1562.51C950.843 1562.08 951.164 1561.71 951.592 1561.68C952.005 1561.65 961.735 1561.05 963.059 1567.08C963.151 1567.49 962.885 1567.91 962.467 1568C962.048 1568.09 961.635 1567.83 961.541 1567.41C960.504 1562.69 951.787 1563.23 951.699 1563.23C951.505 1563.24 951.323 1563.19 951.179 1563.08Z" fill="black"/>
<path d="M933.461 1559.49C932.688 1560.52 931.227 1560.73 930.2 1559.96C929.172 1559.17 928.967 1557.72 929.74 1556.69C930.515 1555.67 931.975 1555.45 933.003 1556.23C934.031 1557 934.236 1558.47 933.461 1559.49Z" fill="black"/>
<path d="M954.643 1572.53C953.868 1573.56 952.408 1573.76 951.38 1572.99C950.352 1572.21 950.147 1570.76 950.922 1569.73C951.695 1568.71 953.156 1568.49 954.184 1569.27C955.211 1570.04 955.417 1571.51 954.643 1572.53Z" fill="black"/>
<path d="M932.163 1502.52L931.472 1525.04C931.472 1525.04 953.728 1560.96 980.756 1558.64C1007.79 1556.31 1008.06 1545.63 1008.79 1534.81C1009.15 1529.49 1003.5 1513.84 985.293 1509.61C975.353 1507.32 977.28 1493.29 964.859 1491.72C952.437 1490.13 935.72 1491.01 934.305 1495.28C932.891 1499.55 932.163 1502.52 932.163 1502.52Z" fill="black"/>
<path d="M937.464 1496.79C937.464 1496.79 923.663 1485.32 909.284 1496.08C894.903 1506.85 894.842 1518.13 891.883 1522.35C888.926 1526.55 865.269 1552.16 886.276 1564.75L926 1522.93L932.955 1499.63L937.464 1496.79Z" fill="black"/>
<path d="M918.58 1547.27C913.935 1553.44 905.172 1554.67 899.005 1550.03C892.84 1545.39 891.607 1536.61 896.251 1530.45C900.896 1524.28 909.66 1523.05 915.825 1527.69C921.992 1532.35 923.225 1541.11 918.58 1547.27Z" fill="#FE9F73"/>
<path d="M901.436 1545.08C899.117 1543.33 898.881 1540.43 899.683 1538.29C900.632 1535.79 902.832 1534.31 905.288 1534.52C908.916 1534.85 910.416 1537.52 910.995 1539.15C911.468 1537.52 911.407 1536.03 910.812 1534.69C909.524 1531.83 906.132 1530.65 906.097 1530.64C905.893 1530.57 905.785 1530.36 905.853 1530.15C905.921 1529.95 906.141 1529.84 906.345 1529.91C906.497 1529.96 910.087 1531.2 911.517 1534.37C912.344 1536.21 912.271 1538.29 911.301 1540.59L910.759 1541.87L910.56 1540.49C910.532 1540.29 909.821 1535.72 905.217 1535.29C902.668 1535.07 901.035 1536.92 900.409 1538.57C899.761 1540.29 899.768 1542.85 901.901 1544.45L901.965 1544.51C902.135 1544.64 902.171 1544.88 902.045 1545.04C901.919 1545.21 901.675 1545.25 901.503 1545.13L901.436 1545.08Z" fill="#F07162"/>
<path d="M896.469 1568.64C896.469 1568.64 878.575 1594.21 907.899 1620.04L917.14 1604.04C917.14 1604.04 893.905 1592.88 896.469 1568.64Z" fill="#F07162"/>
<path d="M949.599 1591.25C949.599 1591.25 931.189 1624.13 910.588 1610.27C881.109 1590.44 890.548 1572.2 898.831 1557.71L919.12 1530.17L926 1522.93C926.297 1526.71 925.379 1530.48 923.38 1533.69C919.033 1540.68 907.193 1559.41 908.24 1561.43C909.717 1564.27 947.352 1585.05 949.599 1591.25Z" fill="black"/>
<path d="M930.571 1576.99C930.441 1576.89 930.381 1576.72 930.437 1576.56C930.505 1576.35 930.725 1576.24 930.929 1576.31L938.695 1578.95L947.752 1562.83C947.857 1562.64 948.093 1562.57 948.28 1562.68C948.472 1562.79 948.533 1563.03 948.428 1563.21L939.056 1579.88L930.68 1577.05L930.571 1576.99Z" fill="#F07162"/>
<path d="M922.925 1578.41C923.155 1578.53 936.047 1587.83 936.047 1587.83C936.047 1587.83 930.489 1591.87 925.688 1588.43C920.888 1584.97 922.925 1578.41 922.925 1578.41Z" fill="#FBFDFC"/>
<path d="M1061.41 1787.61C1069.32 1778.57 1082.12 1761.89 1085.51 1754.61L1085.52 1754.59C1085.85 1753.91 1086.08 1753.29 1086.22 1752.79L1086.25 1752.72C1086.28 1752.57 1086.3 1752.44 1086.33 1752.32C1086.69 1750.05 1087.4 1747.57 1088.36 1744.99C1090.2 1736.49 1091 1727.45 1092.18 1724.89C1093.27 1722.55 1097.87 1719.8 1100.91 1718.17C1103.44 1716.84 1104.85 1713.91 1104.06 1711.16C1103.6 1709.56 1102.45 1708.07 1099.93 1707.39C1099.93 1707.39 1102.15 1699.65 1095.13 1698.72C1095.13 1698.72 1097.66 1690.24 1086.37 1691.55C1086.37 1691.55 1085.57 1686.72 1080.22 1686.56C1074.87 1686.39 1063.36 1691.24 1061.72 1692.67C1060.09 1694.12 1042.59 1718.03 1042.59 1718.03C1042.59 1718.03 1026.79 1751.01 1025.54 1752.59L1061.41 1787.61Z" fill="#FE9F73"/>
<path d="M1063.07 1707.24C1063.24 1707.2 1063.39 1707.12 1063.5 1706.97C1063.55 1706.91 1068.02 1701.08 1070.26 1699.49C1072.08 1698.2 1081.76 1694.15 1086.63 1692.19C1086.99 1692.04 1087.16 1691.64 1087.02 1691.28C1086.89 1690.93 1086.48 1690.76 1086.13 1690.91C1085.55 1691.15 1071.87 1696.67 1069.47 1698.37C1067.06 1700.08 1062.6 1705.89 1062.41 1706.15C1062.17 1706.45 1062.23 1706.88 1062.53 1707.11C1062.69 1707.23 1062.89 1707.27 1063.07 1707.24Z" fill="#F07162"/>
<path d="M1074.09 1714.89C1074.27 1714.87 1074.43 1714.76 1074.54 1714.61C1074.57 1714.56 1078.02 1709.87 1080.72 1707.64C1083.44 1705.4 1095.32 1699.4 1095.44 1699.33C1095.78 1699.16 1095.92 1698.75 1095.75 1698.41C1095.58 1698.07 1095.17 1697.93 1094.83 1698.11C1094.33 1698.36 1082.68 1704.24 1079.85 1706.59C1077.01 1708.92 1073.57 1713.61 1073.42 1713.81C1073.2 1714.12 1073.26 1714.55 1073.57 1714.77C1073.73 1714.89 1073.92 1714.92 1074.09 1714.89Z" fill="#F07162"/>
<path d="M1081.7 1721.24C1081.88 1721.2 1082.05 1721.11 1082.16 1720.93C1082.18 1720.91 1084.36 1717.67 1087.04 1715.32C1089.72 1712.96 1100.11 1708.05 1100.22 1708C1100.57 1707.84 1100.72 1707.43 1100.56 1707.08C1100.4 1706.73 1099.99 1706.6 1099.64 1706.76C1099.21 1706.96 1088.96 1711.8 1086.14 1714.29C1083.32 1716.77 1081.1 1720.04 1081.01 1720.19C1080.8 1720.51 1080.88 1720.93 1081.2 1721.13C1081.35 1721.24 1081.53 1721.27 1081.7 1721.24Z" fill="#F07162"/>
<path d="M399.989 2368.67L439.293 2326.15C439.293 2326.15 403.492 2315.55 402.075 2315.89C400.656 2316.25 370.055 2326.47 370.055 2326.47C370.055 2326.47 361.665 2341.41 362.02 2347.44C362.373 2353.47 365.564 2367.65 371.944 2371.55C378.325 2375.44 379.388 2378.28 385.06 2376.16C390.732 2374.03 399.989 2368.67 399.989 2368.67Z" fill="#FE9F73"/>
<path d="M736.693 2412.52L685.311 2412.71L685.144 2398.37L705.351 2345.25L765.019 2351.96L736.693 2412.52Z" fill="#FE9F73"/>
<path d="M684.681 2416.75H740.728L763.452 2392L805.013 2416.75H813.965C817.051 2416.75 819.879 2418.84 820.459 2421.87C821.241 2425.95 818.137 2429.51 814.201 2429.51H683.881C682.924 2429.51 682.148 2428.73 682.148 2427.77V2419.28C682.148 2417.88 683.281 2416.75 684.681 2416.75Z" fill="#7FC6A6"/>
<path d="M685.176 2416.83V2393.81C685.176 2393.81 694.616 2381.11 708.987 2387.59C708.987 2387.59 730.725 2403.01 749.887 2384.35L797.472 2405.47C797.472 2405.47 810.52 2409.83 814.053 2416.83H685.176Z" fill="#3AA1C9"/>
<path d="M684.7 2416.71H685.653V2393.81H684.699L684.7 2416.71Z" fill="black"/>
<path d="M728.469 2394.07C730.291 2394.07 731.388 2393.91 731.424 2393.91L731.283 2392.96C731.171 2392.97 719.939 2394.55 709.257 2387.2L708.717 2387.99C716.369 2393.25 724.307 2394.07 728.469 2394.07Z" fill="black"/>
<path d="M696.759 2412.52L697.291 2411.73L691.212 2407.63L690.68 2408.43L696.759 2412.52Z" fill="black"/>
<path d="M701.117 2411.36L701.649 2410.57L695.572 2406.48L695.039 2407.27L701.117 2411.36Z" fill="black"/>
<path d="M818.636 2428.4C820.175 2427.09 821.058 2425.19 821.058 2423.17C821.058 2419.39 817.982 2416.32 814.202 2416.32H685.346C683.319 2416.32 681.671 2417.96 681.671 2419.99V2426.35H682.626V2419.99C682.626 2418.49 683.846 2417.27 685.346 2417.27H814.202C817.456 2417.27 820.104 2419.92 820.104 2423.17C820.104 2424.91 819.344 2426.55 818.019 2427.67L818.636 2428.4Z" fill="black"/>
<path d="M813.771 2417L814.633 2416.59C814.527 2416.36 811.916 2411.01 802.176 2406.85C792.604 2402.77 750.505 2384.11 750.081 2383.92L749.693 2384.79C750.119 2384.97 792.225 2403.65 801.801 2407.73C811.173 2411.73 813.747 2416.95 813.771 2417Z" fill="black"/>
<path d="M674.836 1998.73C674.836 1998.73 764.375 2076.92 838.813 2096.77L694.751 2347.83C694.751 2347.83 724.765 2379.97 774.624 2379.97C774.624 2379.97 971.64 2092.84 971.707 2059.25C971.755 2035.21 801.437 1922.77 801.437 1922.77L674.836 1959.35V1998.73Z" fill="#2A3E70"/>
<path d="M360.441 2316.64L641.779 1841.17L724.996 1835.95L801.437 1922.77C801.437 1922.77 769.084 1969.19 717.036 2017.01C664.989 2064.84 604.501 2107.75 540.497 2206.21C476.493 2304.68 437.105 2362.36 437.105 2362.36C437.105 2362.36 391.388 2344.07 360.441 2316.64Z" fill="#3A4A7C"/>
<path d="M425.039 2420.23H371.788L340.712 2338.17C339.159 2334.07 341.868 2329.59 346.224 2329.07L370.585 2326.15C370.585 2326.15 373.128 2360.77 399.989 2368.67L395.465 2396.09C408.277 2400.97 411.548 2400.03 425.039 2407.16C432.544 2411.12 425.039 2420.23 425.039 2420.23Z" fill="#3AA1C9"/>
<path d="M809.345 1928.63C809.345 1928.63 822.885 1847.48 834.841 1833.41C846.799 1819.35 858.032 1810.01 858.032 1810.01C875.652 1848.85 906.609 1903.76 916.083 1908.71C932.26 1917.15 972.351 1892.52 1004 1857.36C1035.65 1822.19 1070.82 1784.91 1070.82 1784.91L1031.43 1737.08L975.907 1786.24L946.327 1812.35C946.327 1812.35 905.532 1648.47 894.983 1611.89C884.432 1575.32 856.299 1580.24 856.299 1580.24C815.504 1587.27 641.779 1841.17 641.779 1841.17C641.779 1841.17 686.935 1854.76 702.267 1861.57C746.577 1881.27 749.732 1926.04 809.345 1928.63Z" fill="#FC4F68"/>
<path d="M922.663 1910.87C919.8 1910.87 917.464 1910.36 915.704 1909.4C907.233 1904.83 886.9 1868.11 886.039 1866.55C842.612 1798.43 834.402 1711.87 834.324 1711L835.914 1710.87C835.991 1711.72 844.171 1797.91 887.41 1865.73C887.644 1866.16 908.4 1903.64 916.462 1908C924.278 1912.21 946.067 1906.36 975.418 1883.48C1004.37 1860.92 1050.29 1805.75 1050.75 1805.19L1051.98 1806.21C1051.52 1806.76 1005.49 1862.07 976.398 1884.73C952.523 1903.35 933.688 1910.87 922.663 1910.87Z" fill="#1D1D1B"/>
<path d="M940.335 1836.16L938.803 1835.72L945.501 1812.33L916.155 1695.75L917.701 1695.36L947.152 1812.36L940.335 1836.16Z" fill="#1D1D1B"/>
<path d="M946.855 1812.93L945.799 1811.75L1030.9 1736.49L1031.96 1737.68L946.855 1812.93Z" fill="#1D1D1B"/>
<path d="M806.352 1929.51C783.519 1929.51 759.548 1915.16 735.044 1886.8C712.815 1861.08 675.043 1852.48 674.664 1852.39L675.008 1850.84C675.392 1850.92 713.669 1859.63 736.251 1885.76C761.279 1914.72 785.681 1928.89 808.681 1927.85C809.955 1921.32 821.059 1864.77 828.528 1843.83L830.032 1844.37C822.179 1866.39 810.248 1928.15 810.129 1928.77L810.012 1929.39L809.391 1929.41C808.381 1929.48 807.365 1929.51 806.352 1929.51Z" fill="#1D1D1B"/>
<path d="M340.199 2335.77L369.872 2415.16C371.027 2418.2 373.946 2420.23 377.203 2420.23H423.201C424.509 2420.23 425.739 2420.91 426.37 2422.05C426.679 2422.61 426.971 2423.28 427.154 2424.04C427.751 2426.51 426.134 2428.53 423.594 2428.53H372.408C368.568 2428.53 365.147 2426.12 363.875 2422.49L334.476 2337.31C334.052 2336.08 334.395 2334.64 335.468 2333.91C335.915 2333.6 336.495 2333.4 337.24 2333.44C338.591 2333.52 339.72 2334.51 340.199 2335.77Z" fill="#7FC6A6"/>
<path d="M423.594 2428.93V2428.15C424.703 2428.15 425.646 2427.72 426.244 2426.96C426.839 2426.2 427.024 2425.2 426.766 2424.13C426.614 2423.51 426.362 2422.87 426.02 2422.24C425.47 2421.24 424.39 2420.61 423.202 2420.61H377.204C373.8 2420.61 370.704 2418.48 369.5 2415.31L339.826 2335.91C339.374 2334.72 338.35 2333.91 337.216 2333.84C336.635 2333.79 336.123 2333.93 335.694 2334.23C334.81 2334.84 334.464 2336.04 334.854 2337.17L334.1 2337.44C333.592 2335.96 334.063 2334.37 335.243 2333.57C335.822 2333.17 336.503 2333.01 337.264 2333.04C338.711 2333.13 340.01 2334.15 340.572 2335.63L370.247 2415.01C371.334 2417.89 374.13 2419.83 377.204 2419.83H423.202C424.68 2419.83 426.027 2420.6 426.719 2421.85C427.095 2422.55 427.372 2423.24 427.542 2423.95C427.858 2425.25 427.62 2426.51 426.871 2427.45C426.118 2428.41 424.954 2428.93 423.594 2428.93Z" fill="#1D1D1B"/>
<path d="M366.263 2334.27L370.613 2326.47L373.584 2329.91L375.733 2334.95L377.063 2337.61L378.104 2342.39L379.277 2348.55L379.145 2351.76L375.157 2354.04L373.628 2350.31L366.263 2334.27Z" fill="#3AA1C9"/>
<path d="M379.277 2350.89L380.465 2357.95C380.465 2357.95 382.499 2362.73 384.839 2364.15L387.929 2365.93L393.663 2367.88L399.016 2368.55L399.252 2365.72L379.277 2350.89Z" fill="#FE9F73"/>
<path d="M426.983 2409.24C421.667 2403.4 395.625 2396.55 395.364 2396.48L395.565 2395.71C396.647 2395.99 422.097 2402.69 427.573 2408.71L426.983 2409.24Z" fill="#1D1D1B"/>
<path d="M387.303 2402.48L386.835 2401.83L395.097 2395.87L399.529 2369.01L399.128 2368.96C391.064 2367.91 380.021 2366.47 378.948 2352.51C377.345 2331.68 370.425 2326.52 370.356 2326.48L370.815 2325.83C371.111 2326.03 378.107 2331.16 379.743 2352.44C380.767 2365.76 391.004 2367.09 399.231 2368.17L400.451 2368.33L395.832 2396.32L387.303 2402.48Z" fill="#1D1D1B"/>
<path d="M4046.45 2162.16C3876 2190.17 3715.11 2074.69 3687.11 1904.24C3659.09 1733.77 3774.57 1572.89 3945.04 1544.89C4115.49 1516.88 4276.37 1632.36 4304.39 1802.81C4332.39 1973.27 4216.91 2134.16 4046.45 2162.16ZM4421.67 1676.67C4402.27 1629.87 4375.63 1587.33 4343.21 1550.28L4395.2 1439.99L4327.47 1391.37L4259.73 1342.76L4171.87 1427.29C4126.39 1408.44 4077.57 1396.8 4027.03 1393.41L3985.77 1278.65L3903.51 1292.17L3821.24 1305.68L3818.89 1427.61C3772.08 1447 3729.56 1473.65 3692.49 1506.05L3582.2 1454.08L3533.59 1521.8L3484.97 1589.53L3569.51 1677.4C3550.67 1722.88 3539.03 1771.69 3535.63 1822.24L3420.87 1863.49L3434.39 1945.76L3447.91 2028.03L3569.83 2030.39C3589.21 2077.19 3615.87 2119.72 3648.27 2156.77L3596.29 2267.07L3664.03 2315.68L3731.76 2364.29L3819.63 2279.76C3865.11 2298.6 3913.92 2310.24 3964.47 2313.64L4005.71 2428.4L4087.97 2414.88L4170.24 2401.36L4172.6 2279.44C4219.4 2260.05 4261.93 2233.4 4298.99 2201L4409.29 2252.97L4457.91 2185.24L4506.52 2117.52L4421.99 2029.65C4440.83 1984.17 4452.47 1935.35 4455.85 1884.8L4570.61 1843.56L4557.09 1761.29L4543.59 1679.03L4421.67 1676.67Z" fill="#FD7583"/>
<path d="M2891.99 2369.79L2929.84 2328.83C2929.84 2328.83 2895.36 2318.61 2893.99 2318.96C2892.63 2319.29 2863.15 2329.15 2863.15 2329.15C2863.15 2329.15 2855.07 2343.53 2855.4 2349.35C2855.75 2355.15 2858.81 2368.81 2864.96 2372.56C2871.11 2376.32 2872.13 2379.05 2877.6 2377C2883.07 2374.96 2891.99 2369.79 2891.99 2369.79Z" fill="#FE9F73"/>
<path d="M3206.31 2412.04L3156.8 2412.21L3156.64 2398.41L3176.11 2347.23L3233.59 2353.69L3206.31 2412.04Z" fill="#FE9F73"/>
<path d="M3156.2 2416.11H3210.19L3232.08 2392.27L3272.12 2416.11H3280.73C3283.71 2416.11 3286.44 2418.12 3287 2421.04C3287.75 2424.96 3284.76 2428.4 3280.97 2428.4H3155.43C3154.51 2428.4 3153.76 2427.65 3153.76 2426.73V2418.55C3153.76 2417.2 3154.85 2416.11 3156.2 2416.11Z" fill="#7FC6A6"/>
<path d="M3156.67 2416.17V2394.01C3156.67 2394.01 3165.76 2381.77 3179.61 2388.03C3179.61 2388.03 3200.55 2402.88 3219.01 2384.91L3264.85 2405.24C3264.85 2405.24 3277.43 2409.44 3280.83 2416.17H3156.67Z" fill="#3AA1C9"/>
<path d="M3156.21 2416.07H3157.13V2394.01H3156.21V2416.07Z" fill="black"/>
<path d="M3198.37 2394.25C3200.13 2394.25 3201.19 2394.11 3201.23 2394.11L3201.09 2393.19C3200.99 2393.21 3190.16 2394.72 3179.87 2387.64L3179.35 2388.4C3186.72 2393.48 3194.37 2394.25 3198.37 2394.25Z" fill="black"/>
<path d="M3167.83 2412.04L3168.35 2411.28L3162.48 2407.33L3161.97 2408.09L3167.83 2412.04Z" fill="black"/>
<path d="M3172.03 2410.92L3172.55 2410.16L3166.68 2406.21L3166.17 2406.97L3172.03 2410.92Z" fill="black"/>
<path d="M3285.24 2427.33C3286.72 2426.08 3287.57 2424.24 3287.57 2422.29C3287.57 2418.65 3284.61 2415.69 3280.97 2415.69H3156.84C3154.88 2415.69 3153.29 2417.28 3153.29 2419.23V2425.36H3154.21V2419.23C3154.21 2417.79 3155.39 2416.61 3156.84 2416.61H3280.97C3284.11 2416.61 3286.65 2419.16 3286.65 2422.29C3286.65 2423.97 3285.92 2425.55 3284.64 2426.63L3285.24 2427.33Z" fill="black"/>
<path d="M3280.55 2416.35L3281.39 2415.96C3281.28 2415.73 3278.76 2410.59 3269.39 2406.59C3260.16 2402.65 3219.6 2384.67 3219.2 2384.48L3218.83 2385.32C3219.23 2385.51 3259.8 2403.49 3269.03 2407.43C3278.05 2411.28 3280.53 2416.29 3280.55 2416.35Z" fill="black"/>
<path d="M3146.71 2013.41C3146.71 2013.41 3232.96 2088.73 3304.68 2107.85L3165.89 2349.71C3165.89 2349.71 3194.81 2380.68 3242.84 2380.68C3242.84 2380.68 3432.63 2104.08 3432.69 2071.72C3432.75 2048.56 3268.67 1940.24 3268.67 1940.24L3146.71 1975.47V2013.41Z" fill="#3D1F35"/>
<path d="M2853.88 2319.67L3124.91 1861.64L3205.07 1856.6L3278.71 1940.24C3278.71 1940.24 3247.55 1984.96 3197.4 2031.03C3147.27 2077.11 3089 2118.44 3027.33 2213.29C2965.68 2308.15 2927.73 2363.71 2927.73 2363.71C2927.73 2363.71 2883.69 2346.09 2853.88 2319.67Z" fill="#49263E"/>
<path d="M2916.11 2419.45H2864.81L2834.88 2340.41C2833.39 2336.45 2835.99 2332.15 2840.19 2331.64L2863.65 2328.83C2863.65 2328.83 2866.11 2362.19 2891.99 2369.79L2887.63 2396.21C2899.96 2400.91 2903.12 2400 2916.11 2406.87C2923.35 2410.69 2916.11 2419.45 2916.11 2419.45Z" fill="#3AA1C9"/>
<path d="M2834.39 2338.11L2862.97 2414.57C2864.08 2417.52 2866.89 2419.45 2870.03 2419.45H2914.35C2915.6 2419.45 2916.79 2420.11 2917.4 2421.21C2917.69 2421.76 2917.97 2422.41 2918.15 2423.13C2918.72 2425.51 2917.17 2427.47 2914.72 2427.47H2865.41C2861.71 2427.47 2858.41 2425.13 2857.19 2421.64L2828.87 2339.57C2828.47 2338.39 2828.79 2337 2829.83 2336.29C2830.25 2336 2830.81 2335.81 2831.53 2335.85C2832.83 2335.93 2833.92 2336.88 2834.39 2338.11Z" fill="#7FC6A6"/>
<path d="M2914.72 2428.01V2426.92C2915.73 2426.92 2916.6 2426.53 2917.15 2425.84C2917.69 2425.16 2917.85 2424.24 2917.61 2423.27C2917.48 2422.67 2917.24 2422.07 2916.92 2421.48C2916.41 2420.57 2915.43 2420 2914.35 2420H2870.03C2866.68 2420 2863.64 2417.89 2862.45 2414.77L2833.87 2338.29C2833.45 2337.2 2832.53 2336.47 2831.51 2336.4C2830.97 2336.37 2830.52 2336.49 2830.13 2336.75C2829.36 2337.28 2829.04 2338.4 2829.39 2339.4L2828.36 2339.76C2827.84 2338.27 2828.32 2336.67 2829.52 2335.85C2830.11 2335.45 2830.79 2335.25 2831.56 2335.31C2833.03 2335.4 2834.33 2336.41 2834.89 2337.91L2863.48 2414.39C2864.51 2417.09 2867.13 2418.91 2870.03 2418.91H2914.35C2915.83 2418.91 2917.19 2419.69 2917.88 2420.96C2918.24 2421.63 2918.51 2422.32 2918.68 2423C2919 2424.32 2918.76 2425.56 2918 2426.52C2917.25 2427.48 2916.08 2428.01 2914.72 2428.01Z" fill="#1D1D1B"/>
<path d="M2859.49 2336.65L2863.68 2329.13L2866.55 2332.45L2868.61 2337.31L2869.89 2339.87L2870.89 2344.48L2872.03 2350.41L2871.91 2353.51L2868.05 2355.71L2866.59 2352.09L2859.49 2336.65Z" fill="#3AA1C9"/>
<path d="M2872.03 2352.68L2873.17 2359.47C2873.17 2359.47 2875.13 2364.07 2877.39 2365.44L2880.36 2367.16L2885.89 2369.03L2891.04 2369.67L2891.27 2366.95L2872.03 2352.68Z" fill="#FE9F73"/>
<path d="M2917.87 2408.99C2912.77 2403.4 2887.73 2396.8 2887.48 2396.73L2887.76 2395.68C2888.8 2395.96 2913.37 2402.43 2918.67 2408.25L2917.87 2408.99Z" fill="#1D1D1B"/>
<path d="M2879.85 2402.49L2879.21 2401.6L2887.12 2395.89L2891.35 2370.27L2891.13 2370.23C2883.31 2369.21 2872.6 2367.81 2871.55 2354.24C2870.01 2334.27 2863.41 2329.32 2863.35 2329.28L2863.97 2328.39C2864.25 2328.59 2871.05 2333.57 2872.64 2354.15C2873.61 2366.84 2883.4 2368.12 2891.27 2369.15L2892.61 2369.32L2888.12 2396.52L2879.85 2402.49Z" fill="#1D1D1B"/>
<path d="M3308.07 1444.15C3290.67 1431.44 3265.87 1434.01 3265.87 1434.01C3265.87 1434.01 3254.45 1443.28 3253.27 1444.4C3252.08 1445.53 3262.96 1443.97 3262.96 1443.97L3315.07 1488.09L3318.67 1476.44C3322.33 1464.52 3318.15 1451.49 3308.07 1444.15Z" fill="#FE9F73"/>
<path d="M3241.47 1496.12L3237.24 1511.75C3237.24 1511.75 3223.15 1541.87 3222.57 1548.91C3222.01 1555.95 3227.47 1572.05 3245.03 1577.47C3250.56 1579.17 3255.75 1579.73 3260.23 1579.69C3269.41 1579.63 3269.96 1600.48 3271.59 1591.44L3283.17 1539.53C3299.21 1542.08 3303.91 1524.29 3303.91 1524.29L3319.05 1475.12L3261.95 1436.81L3241.47 1496.12Z" fill="#FE9F73"/>
<path d="M3270.97 1483.92C3270.65 1484.19 3270.61 1484.67 3270.88 1484.99C3271.01 1485.15 3271.19 1485.24 3271.37 1485.27C3271.57 1485.29 3271.79 1485.24 3271.96 1485.09C3272.39 1484.73 3282.71 1476.41 3290.37 1484.23C3290.68 1484.52 3291.16 1484.53 3291.47 1484.23C3291.76 1483.93 3291.77 1483.45 3291.47 1483.15C3282.8 1474.33 3271.09 1483.81 3270.97 1483.92Z" fill="#4C222E"/>
<path d="M3306.25 1484.52C3305.83 1484.51 3305.48 1484.84 3305.47 1485.27C3305.47 1485.49 3305.56 1485.71 3305.72 1485.85C3305.85 1485.97 3306.03 1486.04 3306.23 1486.04C3306.31 1486.05 3314.92 1486.28 3315.53 1491.01C3315.59 1491.43 3315.96 1491.73 3316.39 1491.67C3316.8 1491.61 3317.09 1491.24 3317.04 1490.81C3316.27 1484.79 3306.67 1484.52 3306.25 1484.52Z" fill="#4C222E"/>
<path d="M3281.87 1489.88C3280.67 1489.51 3279.37 1490.19 3279 1491.4C3278.63 1492.61 3279.31 1493.89 3280.52 1494.27C3281.73 1494.64 3283.01 1493.96 3283.39 1492.75C3283.76 1491.53 3283.08 1490.25 3281.87 1489.88Z" fill="black"/>
<path d="M3305.89 1494.88C3304.68 1494.51 3303.39 1495.19 3303.01 1496.4C3302.64 1497.61 3303.32 1498.89 3304.53 1499.27C3305.75 1499.64 3307.04 1498.96 3307.41 1497.75C3307.79 1496.53 3307.11 1495.25 3305.89 1494.88Z" fill="black"/>
<path d="M3266.09 1433.24C3266.09 1433.24 3247.79 1426.61 3238.05 1441.43C3228.32 1456.24 3233.71 1467.32 3232.37 1472.21C3231.04 1477.11 3217.68 1508.79 3241.37 1513.43L3264.23 1461.35L3262.87 1437.37L3266.09 1433.24Z" fill="#33192C"/>
<path d="M3256.39 1469.16C3249.11 1466.92 3241.39 1471 3239.15 1478.28C3236.91 1485.55 3240.99 1493.27 3248.25 1495.51C3255.53 1497.76 3263.25 1493.68 3265.49 1486.4C3267.73 1479.12 3263.65 1471.4 3256.39 1469.16Z" fill="#FE9F73"/>
<path d="M3254.63 1476.8C3252.23 1474.33 3248.48 1474.39 3248.32 1474.39C3248.12 1474.4 3247.95 1474.57 3247.95 1474.79C3247.96 1474.99 3248.13 1475.16 3248.35 1475.16C3248.37 1475.16 3251.92 1475.11 3254.08 1477.33C3255.07 1478.36 3255.63 1479.73 3255.73 1481.4C3254.65 1480.09 3252.37 1478.11 3248.89 1479.03C3246.53 1479.64 3245 1481.75 3244.96 1484.4C3244.92 1486.64 3246.12 1489.27 3248.85 1490.11L3248.93 1490.13C3249.13 1490.19 3249.35 1490.08 3249.41 1489.87C3249.47 1489.67 3249.35 1489.47 3249.15 1489.4L3249.08 1489.37C3246.56 1488.6 3245.69 1486.23 3245.72 1484.41C3245.75 1482.67 3246.64 1480.4 3249.08 1479.76C3253.49 1478.61 3255.69 1482.63 3255.79 1482.8L3256.43 1484.01L3256.51 1482.64C3256.64 1480.19 3256 1478.23 3254.63 1476.8Z" fill="#F07162"/>
<path d="M3252.13 1513.63C3252.13 1513.63 3242.93 1545.05 3278.79 1559.17L3283.17 1539.53C3283.17 1539.53 3257.88 1536.97 3252.13 1513.63Z" fill="#F07162"/>
<path d="M3298.2 1490.75C3298 1490.71 3297.8 1490.85 3297.76 1491.05L3294.76 1509.04L3286.68 1509.2C3286.47 1509.2 3286.29 1509.39 3286.31 1509.59C3286.31 1509.76 3286.41 1509.91 3286.57 1509.95L3286.69 1509.97L3295.41 1509.79L3298.52 1491.19C3298.56 1490.97 3298.41 1490.77 3298.2 1490.75Z" fill="#F07162"/>
<path d="M3235.44 1515.67L3243.92 1519.07L3251.57 1494.25L3245.63 1491.68L3235.44 1515.67Z" fill="#FE9F73"/>
<path d="M3322.88 1447.56C3322.88 1447.56 3331.09 1429.69 3312.49 1430C3293.89 1430.31 3262.8 1419.93 3249.17 1432.88C3235.53 1445.83 3263.99 1462.11 3263.99 1462.11C3263.99 1462.11 3320.96 1476.04 3328.44 1464C3335.93 1451.96 3322.88 1447.56 3322.88 1447.56Z" fill="#33192C"/>
<path d="M3263.73 1451.2C3263.05 1451.31 3250 1453.59 3251.57 1453.8C3253.15 1454.01 3264 1458.28 3264 1458.28L3260.27 1470.36C3260.27 1470.36 3262.76 1478.91 3258.43 1487.45C3258.43 1487.45 3261.45 1489.77 3262.92 1487.12C3264.39 1484.48 3266.88 1463.73 3274.83 1462.28C3282.77 1460.81 3264.43 1451.08 3263.73 1451.2Z" fill="#33192C"/>
<path d="M3280.31 1512.57C3280.52 1512.61 3293.91 1517.07 3293.91 1517.07C3293.91 1517.07 3290.27 1521.95 3285.29 1520.31C3280.32 1518.67 3280.31 1512.57 3280.31 1512.57Z" fill="#FBFDFC"/>
<path d="M3541.35 1759.85C3552.11 1753.83 3570.25 1742.09 3576.04 1736.23L3576.05 1736.2C3576.61 1735.65 3577.04 1735.15 3577.35 1734.71L3577.4 1734.65C3577.48 1734.52 3577.56 1734.39 3577.61 1734.28C3578.76 1732.23 3580.29 1730.05 3582.11 1727.89C3586.81 1720.31 3590.72 1711.83 3592.73 1709.77C3594.6 1707.87 3600 1706.8 3603.49 1706.28C3606.41 1705.85 3608.79 1703.51 3608.97 1700.56C3609.08 1698.85 3608.47 1697.01 3606.28 1695.49C3606.28 1695.49 3611.09 1688.77 3604.61 1685.45C3604.61 1685.45 3609.99 1678.12 3598.61 1675.49C3598.61 1675.49 3599.49 1670.55 3594.39 1668.55C3589.27 1666.55 3576.45 1667.27 3574.37 1668.09C3572.29 1668.92 3547.12 1686.03 3547.12 1686.03C3547.12 1686.03 3520.47 1712.51 3518.71 1713.59L3541.35 1759.85Z" fill="#FE9F73"/>
<path d="M3570.65 1682.64C3570.83 1682.67 3571.01 1682.64 3571.17 1682.53C3571.23 1682.49 3577.57 1678.4 3580.29 1677.63C3582.48 1677 3593.25 1676.43 3598.64 1676.2C3599.04 1676.19 3599.35 1675.85 3599.33 1675.47C3599.32 1675.08 3598.99 1674.77 3598.6 1674.79C3597.95 1674.81 3582.81 1675.45 3579.91 1676.27C3576.97 1677.11 3570.67 1681.19 3570.4 1681.36C3570.07 1681.57 3569.97 1682.01 3570.19 1682.33C3570.29 1682.51 3570.47 1682.61 3570.65 1682.64Z" fill="#F07162"/>
<path d="M3578.68 1693.85C3578.87 1693.88 3579.05 1693.84 3579.21 1693.73C3579.25 1693.71 3584.21 1690.35 3587.6 1689.12C3591 1687.89 3604.56 1686.17 3604.69 1686.16C3605.09 1686.11 3605.37 1685.76 3605.32 1685.37C3605.28 1684.99 3604.92 1684.71 3604.53 1684.76C3603.96 1684.83 3590.67 1686.52 3587.12 1687.8C3583.56 1689.08 3578.61 1692.44 3578.4 1692.57C3578.08 1692.8 3578 1693.24 3578.21 1693.56C3578.33 1693.72 3578.51 1693.83 3578.68 1693.85Z" fill="#F07162"/>
<path d="M3583.85 1702.61C3584.04 1702.65 3584.24 1702.6 3584.4 1702.48C3584.44 1702.45 3587.67 1700.08 3591.07 1698.73C3594.47 1697.37 3606.21 1696.2 3606.33 1696.2C3606.73 1696.16 3607.01 1695.81 3606.99 1695.43C3606.95 1695.03 3606.6 1694.75 3606.21 1694.79C3605.72 1694.84 3594.13 1695.99 3590.55 1697.43C3586.96 1698.85 3583.69 1701.25 3583.56 1701.36C3583.24 1701.59 3583.17 1702.04 3583.4 1702.35C3583.52 1702.49 3583.68 1702.59 3583.85 1702.61Z" fill="#F07162"/>
<path d="M3304.63 1952.68C3237.07 1973.65 3215.64 1924.96 3158.31 1920.72C3138.47 1919.24 3082.65 1922.17 3082.65 1922.17C3082.65 1922.17 3174.88 1569.31 3217.59 1545.13C3217.59 1545.13 3247 1528.39 3273.41 1564.96C3283.76 1579.28 3300.83 1608.08 3317.77 1637.81C3305.19 1703.11 3294.48 1757.61 3307.39 1776.63C3305.01 1781.73 3297.44 1829.67 3294.97 1836.23C3287.27 1856.72 3304.63 1952.68 3304.63 1952.68Z" fill="#7FC6A6"/>
<path d="M3277.36 1958.67C3256.55 1958.67 3232.36 1950.95 3205.08 1935.56C3169.92 1915.72 3124.27 1921.24 3123.8 1921.31L3123.61 1919.85C3124.08 1919.8 3170.2 1914.2 3205.8 1934.29C3245.47 1956.67 3278.44 1962.71 3303.83 1952.23C3302.76 1945.29 3292.36 1876.93 3292.32 1850.39L3293.77 1850.37C3293.83 1878.11 3305.24 1951.83 3305.35 1952.56L3305.44 1953.12L3304.92 1953.35C3296.53 1956.89 3287.33 1958.67 3277.36 1958.67Z" fill="#1D1D1B"/>
<path d="M3297.67 1601.63L3367.72 1712.31L3541.6 1689L3545.69 1760.03C3545.69 1760.03 3371.2 1826.83 3323.92 1804.04C3276.65 1781.27 3200.21 1657.15 3200.21 1657.15L3297.67 1601.63Z" fill="#7FC6A6"/>
<path d="M3352.01 1809.55C3340.45 1809.55 3330.67 1808.09 3323.61 1804.69C3276.68 1782.09 3200.36 1658.76 3199.59 1657.52L3200.83 1656.76C3201.6 1658 3277.69 1780.96 3324.24 1803.39C3370.68 1825.76 3543.69 1760.03 3545.44 1759.35L3545.96 1760.71C3539.89 1763.04 3417.48 1809.55 3352.01 1809.55Z" fill="#1D1D1B"/>
<path d="M3367.35 1713.08L3295.11 1600.33L3296.33 1599.55L3368.08 1711.52L3516.72 1691.6L3516.92 1693.04L3367.35 1713.08Z" fill="#1D1D1B"/>
<path d="M2362.48 1394.95C2362.48 1394.95 2364.2 1368.47 2331.17 1358.93C2298.15 1349.4 2305.79 1383.36 2296.8 1390.08C2287.81 1396.79 2268.25 1399.85 2268.44 1421.19C2268.63 1442.51 2279.56 1455.59 2274.85 1466.33C2266.97 1484.29 2246.17 1524.73 2285.8 1568.75C2311.81 1597.64 2369.76 1620.79 2369.76 1620.79C2369.76 1620.79 2448.64 1513.25 2444.68 1474.75C2440.72 1436.25 2422.03 1425.92 2400.48 1420.45C2387.24 1417.08 2363.84 1418.92 2362.48 1394.95Z" fill="#49263E"/>
<path d="M2352.59 1411.15C2352.59 1411.15 2381.84 1454.92 2378.87 1469.11C2378.87 1469.11 2377.61 1476.49 2368.43 1481.03L2382.35 1510.49L2340.76 1530.13L2295.11 1433.45L2352.59 1411.15Z" fill="#FE9F73"/>
<path d="M2356.47 1454.53C2356.29 1454.61 2356.08 1454.57 2355.96 1454.41C2355.81 1454.23 2355.85 1453.96 2356.04 1453.83C2358.23 1452.15 2358.35 1448.41 2358.32 1447.23C2353.99 1447.01 2350.73 1445.6 2348.65 1443.04C2345.28 1438.85 2346.25 1433.17 2346.29 1432.93C2346.33 1432.71 2346.56 1432.55 2346.79 1432.59C2347.01 1432.63 2347.16 1432.85 2347.12 1433.08C2347.11 1433.13 2346.17 1438.64 2349.32 1442.52C2351.29 1444.96 2354.47 1446.27 2358.75 1446.4L2359.12 1446.41L2359.15 1446.79C2359.16 1447.01 2359.52 1452.21 2356.55 1454.49L2356.47 1454.53Z" fill="#F07162"/>
<path d="M2323.81 1445.52C2323.63 1445.61 2323.4 1445.63 2323.19 1445.56C2322.75 1445.41 2322.52 1444.93 2322.67 1444.51C2322.71 1444.36 2327.73 1429.84 2339.99 1432.8C2340.44 1432.91 2340.72 1433.36 2340.61 1433.8C2340.51 1434.25 2340.05 1434.53 2339.6 1434.43C2328.84 1431.83 2324.44 1444.49 2324.25 1445.04C2324.17 1445.25 2324.01 1445.43 2323.81 1445.52Z" fill="#49263E"/>
<path d="M2349.37 1431.43C2349.16 1431.53 2348.91 1431.55 2348.68 1431.44C2348.25 1431.25 2348.05 1430.76 2348.24 1430.33C2348.41 1429.96 2352.44 1421 2358.44 1422.65C2358.89 1422.77 2359.16 1423.23 2359.03 1423.68C2358.91 1424.12 2358.45 1424.39 2358 1424.27C2353.39 1423 2349.81 1430.93 2349.77 1431.01C2349.69 1431.2 2349.55 1431.35 2349.37 1431.43Z" fill="#49263E"/>
<path d="M2339.68 1442.8C2340.23 1443.97 2339.73 1445.36 2338.56 1445.91C2337.4 1446.45 2336.01 1445.96 2335.45 1444.8C2334.91 1443.63 2335.4 1442.24 2336.57 1441.69C2337.73 1441.13 2339.13 1441.64 2339.68 1442.8Z" fill="black"/>
<path d="M2319.55 1463.75C2322.63 1470.28 2319.84 1478.08 2313.31 1481.17C2306.76 1484.25 2298.96 1481.47 2295.88 1474.93C2292.79 1468.39 2295.59 1460.59 2302.12 1457.51C2308.65 1454.41 2316.45 1457.21 2319.55 1463.75Z" fill="#FE9F73"/>
<path d="M2310.28 1477.05C2307.8 1478.23 2305.27 1477.15 2303.84 1475.53C2302.15 1473.64 2301.88 1471.15 2303.15 1469.19C2304.95 1466.39 2307.71 1466.23 2309.35 1466.41C2308.24 1465.4 2307.03 1464.84 2305.73 1464.76C2302.81 1464.59 2300.39 1466.87 2300.37 1466.89C2300.2 1467.05 2299.93 1467.04 2299.77 1466.88C2299.61 1466.71 2299.63 1466.44 2299.79 1466.28C2299.89 1466.19 2302.51 1463.73 2305.79 1463.93C2307.68 1464.04 2309.39 1465.03 2310.88 1466.84L2311.83 1468L2310.41 1467.49C2310.24 1467.44 2306.17 1466.04 2303.85 1469.64C2302.56 1471.63 2303.37 1473.76 2304.47 1474.99C2305.6 1476.27 2307.72 1477.37 2309.99 1476.27C2310.19 1476.16 2310.44 1476.25 2310.55 1476.45C2310.65 1476.67 2310.56 1476.92 2310.36 1477.03L2310.28 1477.05Z" fill="#F07162"/>
<path d="M2352.59 1411.15C2352.59 1411.15 2340.39 1394.63 2315.07 1404.13C2289.76 1413.64 2295.11 1433.45 2295.11 1433.45L2325.57 1425.96L2350.73 1411.87L2352.59 1411.15Z" fill="#FE9F73"/>
<path d="M2345.31 1395.72C2345.31 1395.72 2337.16 1417.71 2315.89 1423.64C2315.89 1423.64 2320.68 1450.76 2305.92 1456.37C2291.17 1461.99 2283.2 1425.04 2283.2 1425.04C2283.2 1425.04 2304.68 1401.64 2306.37 1400.84C2308.05 1400.05 2335.48 1385.04 2335.48 1385.04L2345.31 1395.72Z" fill="#49263E"/>
<path d="M2362.68 1458.01C2362.43 1458.03 2347.16 1461.8 2347.16 1461.8C2347.16 1461.8 2350.77 1467.56 2356.45 1466.17C2362.13 1464.79 2362.68 1458.01 2362.68 1458.01Z" fill="#FBFDFC"/>
<path d="M2370.91 1294.96C2370.91 1294.96 2428.53 1392.36 2429.21 1398.79C2429.89 1405.2 2386.23 1503.73 2386.15 1524.16C2386.07 1542.11 2401.43 1597.72 2453.19 1571.03C2502.19 1545.75 2504.97 1395.01 2496.51 1376.43C2488.05 1357.85 2435.45 1280.77 2416.41 1270.8L2370.91 1294.96Z" fill="#E54A67"/>
<path d="M2473.72 1551.17L2472.36 1550.31C2501.67 1504.47 2499.44 1402.23 2499.41 1401.2L2501.01 1401.16C2501.04 1402.2 2503.28 1504.91 2473.72 1551.17Z" fill="#1D1D1B"/>
<path d="M2535.52 1978.8C2535.52 1978.8 2559.57 2110.47 2562.75 2197.83C2565.91 2285.19 2566.55 2402.43 2566.55 2402.43H2515.56C2515.56 2402.43 2477.17 2207.47 2466.4 2168.85C2455.64 2130.23 2423.88 1945.88 2423.88 1945.88L2535.52 1978.8Z" fill="#FE9F73"/>
<path d="M2502.6 1809.77C2502.6 1809.77 2605.09 2296.13 2612.69 2343.61C2612.69 2343.61 2537.71 2391.41 2483.85 2373.79L2385.96 1877.43L2502.6 1809.77Z" fill="#3AA1C9"/>
<path d="M2360.81 1433.21C2361.37 1434.37 2360.87 1435.77 2359.71 1436.32C2358.53 1436.87 2357.15 1436.37 2356.6 1435.2C2356.04 1434.04 2356.55 1432.65 2357.71 1432.09C2358.88 1431.55 2360.27 1432.05 2360.81 1433.21Z" fill="black"/>
<path d="M2307.11 1953.8C2307.11 1953.8 2279.15 2111.43 2263 2171.24C2246.85 2231.07 2219.32 2357.36 2213.63 2376.35H2266.8C2266.8 2376.35 2299.08 2307.03 2325.67 2250.05C2352.25 2193.08 2414.93 2051.6 2423.48 1990.83C2432.03 1930.05 2301.84 1954.75 2307.11 1953.8Z" fill="#FE9F73"/>
<path d="M2259.72 2406.39L2206.89 2394.32L2223.51 2336.01L2312.89 2277.44L2259.72 2406.39Z" fill="#FE9F73"/>
<path d="M2330.2 2419.56H2206.44V2394.32C2206.44 2394.32 2215.44 2382.2 2229.15 2388.39C2229.15 2388.39 2249.88 2403.09 2268.16 2385.29L2313.55 2405.43C2313.55 2405.43 2330.2 2410.97 2330.2 2419.56Z" fill="#FC4F68"/>
<path d="M2205.99 2415.76H2206.89V2394.32H2205.99V2415.76Z" fill="black"/>
<path d="M2247.73 2394.56C2249.47 2394.56 2250.52 2394.41 2250.55 2394.4L2250.41 2393.51C2250.31 2393.52 2239.6 2395.01 2229.41 2388.01L2228.89 2388.76C2236.2 2393.79 2243.76 2394.56 2247.73 2394.56Z" fill="black"/>
<path d="M2217.49 2412.16L2218 2411.4L2212.2 2407.49L2211.69 2408.25L2217.49 2412.16Z" fill="black"/>
<path d="M2221.65 2411.05L2222.16 2410.31L2216.36 2406.39L2215.85 2407.15L2221.65 2411.05Z" fill="black"/>
<path d="M2204.53 2428.4H2329.96C2333.07 2428.4 2335.59 2425.88 2335.59 2422.77V2421.85C2335.59 2418.75 2333.07 2416.23 2329.96 2416.23H2204.53C2203.99 2416.23 2203.56 2416.67 2203.56 2417.2V2427.43C2203.56 2427.96 2203.99 2428.4 2204.53 2428.4Z" fill="#7FC6A6"/>
<path d="M2329.08 2416.43L2329.91 2416.04C2329.81 2415.83 2327.32 2410.72 2318.03 2406.76C2308.91 2402.87 2268.75 2385.05 2268.35 2384.88L2267.97 2385.71C2268.39 2385.89 2308.53 2403.71 2317.67 2407.6C2326.61 2411.41 2329.07 2416.37 2329.08 2416.43Z" fill="black"/>
<path d="M2333.72 2427.31C2335.2 2426.05 2336.04 2424.24 2336.04 2422.32C2336.04 2418.71 2333.11 2415.77 2329.49 2415.77H2206.6C2204.68 2415.77 2203.11 2417.35 2203.11 2419.28V2425.35H2204.01V2419.28C2204.01 2417.85 2205.17 2416.68 2206.6 2416.68H2329.49C2332.6 2416.68 2335.12 2419.21 2335.12 2422.32C2335.12 2423.97 2334.4 2425.53 2333.13 2426.61L2333.72 2427.31Z" fill="black"/>
<path d="M2634.07 2419.56H2510.31V2394.32C2510.31 2394.32 2519.31 2382.2 2533.01 2388.39C2533.01 2388.39 2553.75 2403.09 2572.03 2385.29L2617.4 2405.43C2617.4 2405.43 2634.07 2410.97 2634.07 2419.56Z" fill="#FC4F68"/>
<path d="M2509.85 2415.76H2510.76V2394.32H2509.85V2415.76Z" fill="black"/>
<path d="M2551.6 2394.56C2553.33 2394.56 2554.37 2394.41 2554.41 2394.4L2554.28 2393.51C2554.17 2393.52 2543.45 2395.01 2533.27 2388.01L2532.76 2388.76C2540.05 2393.79 2547.63 2394.56 2551.6 2394.56Z" fill="black"/>
<path d="M2521.35 2412.16L2521.85 2411.4L2516.07 2407.49L2515.56 2408.25L2521.35 2412.16Z" fill="black"/>
<path d="M2525.51 2411.05L2526.01 2410.31L2520.23 2406.39L2519.71 2407.15L2525.51 2411.05Z" fill="black"/>
<path d="M2508.39 2428.4H2633.81C2636.92 2428.4 2639.44 2425.88 2639.44 2422.77V2421.85C2639.44 2418.75 2636.92 2416.23 2633.81 2416.23H2508.39C2507.85 2416.23 2507.41 2416.67 2507.41 2417.2V2427.43C2507.41 2427.96 2507.85 2428.4 2508.39 2428.4Z" fill="#7FC6A6"/>
<path d="M2632.95 2416.43L2633.77 2416.04C2633.67 2415.83 2631.17 2410.72 2621.89 2406.76C2612.76 2402.87 2572.61 2385.05 2572.2 2384.88L2571.84 2385.71C2572.24 2385.89 2612.4 2403.71 2621.53 2407.6C2630.47 2411.41 2632.92 2416.37 2632.95 2416.43Z" fill="black"/>
<path d="M2637.59 2427.31C2639.05 2426.05 2639.89 2424.24 2639.89 2422.32C2639.89 2418.71 2636.96 2415.77 2633.36 2415.77H2510.47C2508.53 2415.77 2506.96 2417.35 2506.96 2419.28V2425.35H2507.87V2419.28C2507.87 2417.85 2509.04 2416.68 2510.47 2416.68H2633.36C2636.47 2416.68 2638.99 2419.21 2638.99 2422.32C2638.99 2423.97 2638.27 2425.53 2637 2426.61L2637.59 2427.31Z" fill="black"/>
<path d="M2335.23 1803.44C2335.23 1803.44 2202.45 2276.4 2192 2341.92C2192 2341.92 2222.16 2378.55 2298.95 2374.93C2298.95 2374.93 2358.88 2188.36 2471.91 1877.83C2481.84 1850.52 2502.6 1809.77 2502.6 1809.77C2502.6 1809.77 2347.63 1783.19 2335.23 1803.44Z" fill="#4CB7D8"/>
<path d="M2319.45 1525.91C2319.45 1525.91 2306.76 1547.44 2311.83 1562C2316.89 1576.56 2363.33 1684.43 2363.33 1690.76C2363.33 1697.09 2340.67 1795.21 2335.23 1803.44C2335.23 1803.44 2434.87 1859.15 2502.6 1809.77C2502.6 1809.77 2506.4 1681.91 2481.72 1614.8C2481.72 1614.8 2482.19 1579.39 2480.65 1567.45C2477.68 1544.41 2423.48 1497.68 2410.19 1497.05C2396.89 1496.41 2334.01 1508.83 2319.45 1525.91Z" fill="#FD7583"/>
<path d="M2480.48 1271.31C2388.25 1264.89 2318.68 1184.92 2325.09 1092.68C2331.51 1000.45 2411.47 930.88 2503.71 937.293C2595.95 943.707 2665.51 1023.68 2659.09 1115.91C2652.69 1208.15 2572.72 1277.72 2480.48 1271.31ZM2735.72 1064.65C2731.39 1037.88 2722.75 1012.45 2710.44 989.16L2751.11 938.107L2721.81 904.44L2692.52 870.787L2636.35 903.987C2614.97 888.573 2590.99 876.493 2565.07 868.493L2557.73 803.64L2513.21 800.547L2468.69 797.453L2452.45 860.667C2425.68 865 2400.25 873.64 2376.96 885.947L2325.91 845.293L2292.24 874.573L2258.57 903.867L2291.79 960.053C2276.37 981.413 2264.29 1005.41 2256.29 1031.32L2191.44 1038.67L2188.35 1083.17L2185.25 1127.69L2248.47 1143.95C2252.8 1170.71 2261.44 1196.15 2273.75 1219.44L2233.09 1270.48L2262.37 1304.15L2291.67 1337.81L2347.85 1304.61C2369.21 1320.03 2393.21 1332.11 2419.12 1340.09L2426.47 1404.95L2470.97 1408.05L2515.49 1411.15L2531.73 1347.93C2558.51 1343.6 2583.95 1334.96 2607.24 1322.64L2658.28 1363.31L2691.95 1334.01L2725.61 1304.72L2692.4 1248.55C2707.83 1227.17 2719.89 1203.19 2727.89 1177.28L2792.75 1169.93L2795.84 1125.41L2798.95 1080.89L2735.72 1064.65Z" fill="#7FC6A6"/>
<path d="M2370.91 1302.73C2370.91 1302.73 2399.73 1427.12 2398.47 1433.45C2397.2 1439.79 2315.69 1514.15 2309.53 1533.61C2304.11 1550.72 2311.83 1594.04 2352.65 1587.72C2407.13 1579.27 2461.45 1445.77 2458.92 1425.52C2456.39 1405.27 2416.56 1298.4 2401.37 1283.21L2370.91 1302.73Z" fill="#FE9F73"/>
<path d="M2374.15 1254.2C2375.29 1256.65 2387.68 1267.59 2392.52 1271.32V1271.37C2405.44 1280.92 2406.51 1299.85 2394.75 1310.8L2388.69 1316.43C2388.69 1316.43 2359.83 1294.37 2355.92 1290.81C2352 1287.25 2342.85 1270.92 2341.99 1263.87C2340.41 1251.09 2345.24 1254.85 2345.24 1254.85C2344.85 1241.41 2351.95 1248.47 2351.95 1248.47C2350.55 1236.47 2358.51 1241.81 2358.51 1241.81C2358.41 1235.24 2360.72 1234.31 2362.63 1234.65C2364 1234.91 2365.15 1235.85 2365.77 1237.09C2367.27 1240.03 2370.95 1247.39 2374.15 1254.2Z" fill="#FE9F73"/>
<path d="M2362.09 1254.45C2362.28 1254.64 2362.57 1254.71 2362.83 1254.59C2363.15 1254.43 2363.28 1254.05 2363.12 1253.73C2360.99 1249.29 2359.15 1241.75 2359.12 1241.67C2359.04 1241.33 2358.69 1241.12 2358.36 1241.2C2358.01 1241.28 2357.8 1241.63 2357.89 1241.97C2357.96 1242.28 2359.79 1249.72 2361.97 1254.28L2362.09 1254.45Z" fill="#F07162"/>
<path d="M2356.25 1260C2356.45 1260.23 2356.8 1260.27 2357.05 1260.09C2357.35 1259.91 2357.44 1259.51 2357.24 1259.21C2353.97 1254.19 2352.59 1248.39 2352.57 1248.32C2352.48 1247.99 2352.15 1247.77 2351.8 1247.85C2351.47 1247.93 2351.25 1248.28 2351.33 1248.61C2351.39 1248.87 2352.79 1254.69 2356.17 1259.91L2356.25 1260Z" fill="#F07162"/>
<path d="M2348.61 1265.32C2348.81 1265.53 2349.15 1265.57 2349.41 1265.41C2349.71 1265.24 2349.8 1264.84 2349.63 1264.55C2346.92 1260.12 2345.88 1254.79 2345.87 1254.73C2345.8 1254.39 2345.47 1254.16 2345.12 1254.23C2344.77 1254.29 2344.56 1254.63 2344.61 1254.97C2344.67 1255.2 2345.72 1260.59 2348.53 1265.21L2348.61 1265.32Z" fill="#F07162"/>
<path d="M2367.19 1312.33C2367.19 1312.33 2399.73 1427.12 2398.47 1433.45C2397.2 1439.79 2315.69 1514.15 2309.53 1533.61C2304.11 1550.72 2311.83 1594.04 2352.65 1587.72C2407.13 1579.27 2461.45 1445.77 2458.92 1425.52C2456.39 1405.27 2423.99 1300.31 2408.8 1285.12L2367.19 1312.33Z" fill="#FD7583"/>
<path d="M2387.33 1578.56L2385.96 1577.75L2428.57 1506.72L2429.95 1507.53L2387.33 1578.56Z" fill="#1D1D1B"/>
<path d="M2328.71 1479.15C2328.41 1478.59 2337.57 1486.77 2350.79 1483.8L2340.64 1494.41C2340.64 1494.41 2330.93 1483.41 2328.71 1479.15Z" fill="#F07162"/>
<path d="M2502.6 1809.77C2495.6 1763.91 2455.96 1635.83 2449.31 1628.23C2442.67 1620.63 2378.09 1608.29 2378.09 1608.29C2378.09 1608.29 2389.85 1609.29 2404.83 1609.29C2418.87 1609.29 2435.73 1608.41 2448.36 1604.96C2474.48 1597.84 2480.65 1567.45 2480.65 1567.45C2481.16 1571.48 2481.45 1578.17 2481.61 1585.28C2481.92 1599.24 2481.72 1614.8 2481.72 1614.8C2505.77 1680.2 2502.77 1803.32 2502.61 1809.53C2502.61 1809.69 2502.6 1809.77 2502.6 1809.77Z" fill="#FA6D7B"/>
<path d="M2336.32 1803.13C2340.63 1805.43 2363.93 1817.44 2393.73 1824.36C2423.92 1831.36 2467.13 1834.43 2501.81 1809.36C2502.01 1801.47 2504.64 1679.43 2480.96 1615.08L2480.91 1614.93V1614.79C2480.92 1614.44 2481.36 1579.29 2479.85 1567.56C2477.76 1551.27 2448.85 1522.37 2428.79 1507.77L2428.23 1507.36L2428.56 1506.75C2447.48 1470.93 2459.33 1435.24 2458.13 1425.61C2455.6 1405.36 2423.75 1302.63 2408.68 1286.16L2368.12 1312.69C2370.87 1322.41 2400.51 1427.33 2399.25 1433.61C2398.75 1436.15 2389.27 1445.84 2371.13 1464.2C2347.04 1488.6 2314.04 1522 2310.29 1533.85C2307.07 1544 2308.79 1561.65 2317.21 1573.63L2317.31 1573.79C2320.87 1582.56 2326 1594.91 2331.44 1607.99C2349.96 1652.57 2364.13 1686.97 2364.13 1690.76C2364.13 1695.8 2342.85 1790.41 2336.32 1803.13ZM2434.77 1830.93C2419.77 1830.93 2405.51 1828.73 2393.33 1825.91C2360.23 1818.21 2335.08 1804.28 2334.83 1804.15L2334.08 1803.72L2334.56 1803C2340.08 1794.65 2362.53 1695.59 2362.53 1690.76C2362.53 1687 2343.71 1641.68 2329.96 1608.6C2324.53 1595.56 2319.41 1583.24 2315.85 1574.47C2307.19 1562.09 2305.44 1543.87 2308.76 1533.37C2312.64 1521.16 2344.44 1488.95 2370 1463.08C2384.01 1448.88 2397.25 1435.48 2397.68 1433.29C2398.69 1428.27 2375.45 1344.44 2366.41 1312.56L2366.25 1311.99L2408.91 1284.09L2409.36 1284.55C2424.4 1299.59 2457.15 1404.85 2459.72 1425.41C2460.95 1435.23 2449.17 1471 2430.29 1506.89C2449.83 1521.24 2479.21 1550.01 2481.44 1567.36C2482.92 1578.81 2482.55 1612.15 2482.52 1614.67C2506.92 1681.17 2503.44 1808.52 2503.4 1809.8V1810.19L2503.08 1810.43C2481.85 1825.89 2457.48 1830.92 2434.77 1830.93Z" fill="#1D1D1B"/>
<path d="M1896.31 908.974L1894.33 911.387C1886.95 920.467 1879.4 929.107 1871.53 937.44L1869.4 939.707L1864.87 935.427L1867 933.16C1874.76 924.92 1882.21 916.414 1889.51 907.454L1891.47 905.04L1896.31 908.974ZM1816.19 978.56C1825.08 972.014 1833.97 964.76 1842.6 957.014L1844.92 954.934L1849.08 959.574L1846.76 961.654C1837.99 969.534 1828.95 976.907 1819.89 983.587L1817.37 985.427L1813.68 980.414L1816.19 978.56ZM1936.21 852.534L1934.56 855.174C1928.33 865.027 1921.85 874.694 1915.29 883.88L1913.49 886.414L1908.41 882.8L1910.23 880.267C1916.72 871.16 1923.13 861.614 1929.28 851.854L1930.95 849.214L1936.21 852.534ZM1969.71 792.094L1968.32 794.894C1963.23 805.174 1957.81 815.454 1952.21 825.467L1950.69 828.187L1945.25 825.134L1946.77 822.414C1952.32 812.507 1957.69 802.307 1962.73 792.134L1964.12 789.334L1969.71 792.094ZM1757.35 1012.43C1767.56 1008.12 1777.8 1003 1787.75 997.254L1790.44 995.68L1793.56 1001.08L1790.87 1002.64C1780.69 1008.53 1770.23 1013.76 1759.77 1018.17L1756.91 1019.39L1754.48 1013.64L1757.35 1012.43ZM1646.89 1118.52L1645.05 1121.04C1638.37 1130.16 1630.88 1139.16 1622.81 1147.75L1620.68 1150.01L1616.13 1145.75L1618.27 1143.48C1626.17 1135.05 1633.49 1126.27 1640.03 1117.35L1641.87 1114.84L1646.89 1118.52ZM1566.65 1187.76C1576.03 1181.27 1585.11 1174.27 1593.63 1166.97L1596 1164.95L1600.05 1169.68L1597.69 1171.71C1589 1179.13 1579.76 1186.27 1570.2 1192.89L1567.64 1194.67L1564.09 1189.55L1566.65 1187.76ZM1678.49 1056.67L1677.52 1059.63C1673.99 1070.27 1669.32 1081.03 1663.65 1091.63L1662.17 1094.37L1656.68 1091.43L1658.16 1088.68C1663.65 1078.4 1668.19 1067.96 1671.6 1057.65L1672.59 1054.71L1678.49 1056.67ZM1692.17 1031.81C1703.19 1029.72 1714.32 1027 1725.27 1023.76L1728.25 1022.88L1730.03 1028.85L1727.04 1029.75C1715.89 1033.04 1704.56 1035.8 1693.35 1037.95L1690.28 1038.52L1689.11 1032.4L1692.17 1031.81ZM1507.17 1220.87C1517.55 1216.36 1527.83 1211.28 1537.72 1205.77L1540.44 1204.25L1543.48 1209.71L1540.75 1211.23C1530.68 1216.83 1520.21 1222 1509.65 1226.59L1506.8 1227.83L1504.32 1222.12L1507.17 1220.87ZM1683.96 987.307L1684.43 990.387C1686.16 1001.68 1686.37 1013.48 1685.08 1025.47L1684.75 1028.56L1678.55 1027.89L1678.88 1024.8C1680.12 1013.35 1679.91 1002.09 1678.27 991.334L1677.8 988.254L1683.96 987.307ZM1442.25 1240.61C1453.4 1238.61 1464.52 1235.93 1475.28 1232.67L1478.27 1231.76L1480.08 1237.72L1477.09 1238.63C1466.09 1241.97 1454.75 1244.71 1443.35 1246.75L1440.28 1247.29L1439.19 1241.16L1442.25 1240.61ZM1624.43 1037.4C1635.61 1037.72 1647.05 1037.4 1658.44 1036.44L1661.55 1036.19L1662.07 1042.4L1658.96 1042.65C1647.35 1043.63 1635.67 1043.96 1624.25 1043.64L1621.15 1043.55L1621.32 1037.32L1624.43 1037.4ZM1374.45 1245.01C1385.89 1245.49 1397.35 1245.39 1408.48 1244.68L1411.6 1244.48L1411.99 1250.71L1408.88 1250.89C1397.52 1251.63 1385.85 1251.73 1374.19 1251.24L1371.08 1251.11L1371.33 1244.88L1374.45 1245.01ZM1653.28 924.88L1655.27 927.28C1658.2 930.827 1660.99 934.507 1663.56 938.214C1667.67 944.147 1671.27 950.387 1674.25 956.76L1675.57 959.587L1669.92 962.227L1668.6 959.4C1665.76 953.347 1662.35 947.414 1658.44 941.774C1655.97 938.2 1653.28 934.667 1650.47 931.254L1648.48 928.84L1653.28 924.88ZM1557.4 1027.2C1567.97 1030.28 1579.13 1032.72 1590.57 1034.44L1593.65 1034.89L1592.73 1041.07L1589.64 1040.6C1577.93 1038.84 1566.49 1036.35 1555.65 1033.17L1552.67 1032.31L1554.41 1026.32L1557.4 1027.2ZM1306.99 1235.67C1318.23 1238.25 1329.52 1240.35 1340.52 1241.89L1343.61 1242.32L1342.75 1248.49L1339.65 1248.07C1328.47 1246.49 1317.01 1244.37 1305.59 1241.75L1302.55 1241.04L1303.95 1234.97L1306.99 1235.67ZM1600.75 884.014C1611.07 889.12 1620.99 895.44 1630.27 902.8L1632.71 904.747L1628.83 909.627L1626.39 907.68C1617.47 900.587 1607.91 894.507 1597.99 889.614L1595.19 888.227L1597.95 882.64L1600.75 884.014ZM1497.12 997.574C1505.33 1004.08 1514.97 1010.01 1525.76 1015.19L1528.57 1016.53L1525.88 1022.15L1523.07 1020.81C1511.85 1015.43 1501.83 1009.25 1493.25 1002.45L1490.8 1000.52L1494.68 995.627L1497.12 997.574ZM1241.8 1215.31C1252.59 1219.53 1263.43 1223.36 1274.04 1226.69L1277.01 1227.63L1275.15 1233.57L1272.17 1232.64C1261.43 1229.27 1250.44 1225.39 1239.53 1221.11L1236.63 1219.97L1238.91 1214.17L1241.8 1215.31ZM1532.43 870.614C1543.56 869.174 1555.4 869.76 1567.65 872.36L1570.71 873.014L1569.41 879.107L1566.36 878.467C1554.8 876.014 1543.65 875.454 1533.23 876.8L1530.13 877.2L1529.33 871.014L1532.43 870.614ZM1468.28 939.107L1467.85 942.187C1466.45 952.334 1468.84 962.72 1474.93 973.067L1476.51 975.747L1471.13 978.92L1469.56 976.227C1462.73 964.654 1460.08 952.907 1461.68 941.334L1462.11 938.254L1468.28 939.107ZM1499.08 882.667L1501.68 880.96L1505.09 886.174L1502.49 887.88C1497.43 891.187 1492.76 895.214 1488.61 899.84L1488.6 899.854C1485.44 903.36 1482.52 907.307 1479.92 911.56L1478.29 914.227L1472.97 910.96L1474.6 908.307C1477.4 903.734 1480.56 899.48 1483.96 895.68L1483.97 895.667C1488.48 890.64 1493.57 886.267 1499.08 882.667ZM1179.8 1186.43C1189.92 1191.88 1200.2 1197.05 1210.37 1201.8L1213.2 1203.12L1210.56 1208.77L1207.75 1207.45C1197.47 1202.65 1187.06 1197.43 1176.84 1191.91L1174.09 1190.44L1177.05 1184.95L1179.8 1186.43ZM1121.35 1150.73C1130.69 1157.15 1140.36 1163.41 1150.1 1169.36L1152.76 1170.99L1149.51 1176.31L1146.85 1174.68C1137.02 1168.68 1127.25 1162.35 1117.82 1155.88L1115.25 1154.12L1118.78 1148.97L1121.35 1150.73Z" fill="#49263E"/>
<path d="M2021.99 771.293L2023.71 732.507C2023.71 732.507 2114.12 642.76 2114.95 640.96C2115.77 639.16 2146.27 573 2146.27 573L2079.36 620.333L1986.84 718.813L2021.99 771.293Z" fill="#EF9D43"/>
<path d="M1922.32 686.56L2146.27 573L1986.84 718.813L1922.32 686.56Z" fill="#FEC786"/>
<path d="M2023.71 732.507L2092.03 767.16L2146.27 573L2023.71 732.507Z" fill="#FEC786"/>
<path d="M1066.84 778.453C1107.1 776.147 1201.48 772.12 1283.53 779.04C1317.48 781.907 1346.8 754.787 1346.03 720.733C1345.72 706.787 1340.72 690.573 1327.79 672.2C1277.96 601.44 1191.36 669.013 1192.19 704.933C1192.19 704.933 1174.69 650.853 1121.51 660.32C1068.34 669.787 1087.14 748.44 1087.14 748.44C1087.14 748.44 1069.98 744.813 1058.09 752.933C1046.39 760.92 1052.7 779.267 1066.84 778.453Z" fill="white"/>
<path d="M3310.63 780.773C3282.97 779.187 3218.15 776.413 3161.79 781.173C3138.48 783.133 3118.35 764.52 3118.87 741.12C3119.08 731.547 3122.52 720.413 3131.4 707.787C3165.63 659.2 3225.09 705.6 3224.52 730.267C3224.52 730.267 3236.55 693.133 3273.07 699.627C3309.59 706.133 3296.68 760.147 3296.68 760.147C3296.68 760.147 3308.45 757.667 3316.63 763.24C3324.67 768.72 3320.33 781.32 3310.63 780.773Z" fill="white"/>
<path d="M892.3 1275.36C894.464 1268.11 893.696 1259.81 888.64 1252.89C879.499 1240.4 862.887 1229.8 833.108 1227.96C833.108 1227.96 865.311 1084.91 740.519 1069.89C612.279 1054.47 605.653 1205.25 605.653 1205.25C605.653 1205.25 532.967 1125.25 493.341 1222.71C493.341 1222.71 415.113 1183.24 377.536 1230.63C366.288 1244.8 368.185 1263.81 377.853 1275.36H892.3Z" fill="white"/>
<path d="M3923.89 1108.79C3926.07 1101.53 3925.29 1093.24 3920.24 1086.32C3911.09 1073.83 3894.48 1063.21 3864.71 1061.39C3864.71 1061.39 3896.91 918.334 3772.12 903.32C3643.88 887.894 3637.25 1038.68 3637.25 1038.68C3637.25 1038.68 3564.56 958.68 3524.93 1056.15C3524.93 1056.15 3446.71 1016.67 3409.13 1064.05C3397.88 1078.23 3399.79 1097.24 3409.45 1108.79H3923.89Z" fill="white"/>
<path d="M4773.92 2437.79H74.2788V2428.4H4773.92V2437.79Z" fill="#33192C"/>
</svg>
