<svg width="1078" height="468" viewBox="0 0 1078 468" fill="none" xmlns="http://www.w3.org/2000/svg">
<g filter="url(#filter0_d_2_33)">
<mask id="mask0_2_33" style="mask-type:luminance" maskUnits="userSpaceOnUse" x="4" y="16" width="372" height="407">
<path d="M257.268 252.132C207.629 172.195 132.121 51.0729 132.121 51.0729C132.113 51.0649 132.113 51.0586 132.11 51.0506C113.691 18.0752 72.0301 6.277 39.0516 24.6955C6.07778 43.1107 -5.7252 84.7734 12.6965 117.747L179.664 387.515C179.671 387.522 179.671 387.53 179.68 387.536C206.152 434.936 273.601 433.591 299.326 387.536C299.326 387.53 299.333 387.522 299.336 387.515L375.196 264.948C305.048 328.391 257.268 252.132 257.268 252.132Z" fill="white"/>
</mask>
<g mask="url(#mask0_2_33)">
<path d="M257.268 252.132C207.629 172.195 132.121 51.0729 132.121 51.0729C132.113 51.0649 132.113 51.0586 132.11 51.0506C113.691 18.0752 72.0301 6.277 39.0516 24.6955C6.07778 43.1107 -5.7252 84.7734 12.6965 117.747L179.664 387.515C179.671 387.522 179.671 387.53 179.68 387.536C206.152 434.936 273.601 433.591 299.326 387.536C299.326 387.53 299.333 387.522 299.336 387.515L375.196 264.948C305.048 328.391 257.268 252.132 257.268 252.132Z" fill="url(#paint0_linear_2_33)"/>
</g>
<mask id="mask1_2_33" style="mask-type:luminance" maskUnits="userSpaceOnUse" x="239" y="16" width="236" height="275">
<path d="M466.308 117.747C484.722 84.7733 472.922 43.1106 439.944 24.6953C406.97 6.27683 365.307 18.0751 346.889 51.0504C346.889 51.0584 346.889 51.0647 346.886 51.0727C346.886 51.0727 287.555 146.241 239.503 223.536C245.655 233.434 251.635 243.057 257.268 252.132C257.268 252.132 305.048 328.39 375.196 264.948L466.308 117.747Z" fill="white"/>
</mask>
<g mask="url(#mask1_2_33)">
<path d="M466.308 117.747C484.722 84.7733 472.922 43.1106 439.944 24.6953C406.97 6.27683 365.307 18.0751 346.889 51.0504C346.889 51.0584 346.889 51.0647 346.886 51.0727C346.886 51.0727 287.555 146.241 239.503 223.536C245.655 233.434 251.635 243.057 257.268 252.132C257.268 252.132 305.048 328.39 375.196 264.948L466.308 117.747Z" fill="url(#paint1_linear_2_33)"/>
</g>
<path d="M579.44 337.32H577.64C575.96 342.12 573.68 346.68 570.8 351C568.16 355.32 564.68 359.16 560.36 362.52C556.04 365.88 550.88 368.52 544.88 370.44C539.12 372.36 532.4 373.32 524.72 373.32C505.28 373.32 490.52 366.96 480.44 354.24C470.6 341.28 465.68 322.8 465.68 298.8V180H518.96V294.12C518.96 305.64 521 314.52 525.08 320.76C529.16 327 536.12 330.12 545.96 330.12C550.04 330.12 554.12 329.52 558.2 328.32C562.28 327.12 565.88 325.44 569 323.28C572.12 320.88 574.64 318 576.56 314.64C578.48 311.28 579.44 307.32 579.44 302.76V180H632.72V369H579.44V337.32ZM708.933 159.84C698.133 159.84 690.213 157.44 685.173 152.64C680.373 147.6 677.973 141.24 677.973 133.56V125.64C677.973 117.96 680.373 111.72 685.173 106.92C690.213 101.88 698.133 99.36 708.933 99.36C719.733 99.36 727.533 101.88 732.333 106.92C737.373 111.72 739.893 117.96 739.893 125.64V133.56C739.893 141.24 737.373 147.6 732.333 152.64C727.533 157.44 719.733 159.84 708.933 159.84ZM682.293 180H735.573V369H682.293V180ZM811.941 159.84C801.141 159.84 793.221 157.44 788.181 152.64C783.381 147.6 780.981 141.24 780.981 133.56V125.64C780.981 117.96 783.381 111.72 788.181 106.92C793.221 101.88 801.141 99.36 811.941 99.36C822.741 99.36 830.541 101.88 835.341 106.92C840.381 111.72 842.901 117.96 842.901 125.64V133.56C842.901 141.24 840.381 147.6 835.341 152.64C830.541 157.44 822.741 159.84 811.941 159.84ZM785.301 180H838.581V369H785.301V180ZM888.309 369V180H941.589V212.04H943.749C947.109 202.2 952.989 193.68 961.389 186.48C969.789 179.28 981.429 175.68 996.309 175.68C1015.75 175.68 1030.39 182.16 1040.23 195.12C1050.31 208.08 1055.35 226.56 1055.35 250.56V369H1002.07V254.88C1002.07 242.64 1000.15 233.64 996.309 227.88C992.469 221.88 985.629 218.88 975.789 218.88C971.469 218.88 967.269 219.48 963.189 220.68C959.109 221.64 955.389 223.32 952.029 225.72C948.909 228.12 946.389 231.12 944.469 234.72C942.549 238.08 941.589 242.04 941.589 246.6V369H888.309Z" fill="#303030"/>
</g>
<defs>
<filter id="filter0_d_2_33" x="0" y="16" width="1059.35" height="414.584" filterUnits="userSpaceOnUse" color-interpolation-filters="sRGB">
<feFlood flood-opacity="0" result="BackgroundImageFix"/>
<feColorMatrix in="SourceAlpha" type="matrix" values="0 0 0 0 0 0 0 0 0 0 0 0 0 0 0 0 0 0 127 0" result="hardAlpha"/>
<feOffset dy="4"/>
<feGaussianBlur stdDeviation="2"/>
<feComposite in2="hardAlpha" operator="out"/>
<feColorMatrix type="matrix" values="0 0 0 0 0 0 0 0 0 0 0 0 0 0 0 0 0 0 0.25 0"/>
<feBlend mode="normal" in2="BackgroundImageFix" result="effect1_dropShadow_2_33"/>
<feBlend mode="normal" in="SourceGraphic" in2="effect1_dropShadow_2_33" result="shape"/>
</filter>
<linearGradient id="paint0_linear_2_33" x1="4.00119" y1="219.292" x2="375.196" y2="219.292" gradientUnits="userSpaceOnUse">
<stop stop-color="#29ABE2"/>
<stop offset="0.145455" stop-color="#29ABE2"/>
<stop offset="1" stop-color="#00FFFF"/>
</linearGradient>
<linearGradient id="paint1_linear_2_33" x1="307.62" y1="246.915" x2="386.121" y2="114.704" gradientUnits="userSpaceOnUse">
<stop stop-color="#A82884"/>
<stop offset="0.0121212" stop-color="#A82884"/>
<stop offset="1" stop-color="#FF47ED"/>
</linearGradient>
</defs>
</svg>