<svg width="471" height="407" viewBox="0 0 471 407" fill="none" xmlns="http://www.w3.org/2000/svg">
<mask id="mask0_9_3" style="mask-type:luminance" maskUnits="userSpaceOnUse" x="0" y="0" width="372" height="407">
<path d="M253.268 236.132C203.629 156.195 128.121 35.0729 128.121 35.0729C128.113 35.0649 128.113 35.0586 128.11 35.0506C109.691 2.07522 68.0301 -9.723 35.0516 8.69546C2.07778 27.1107 -9.7252 68.7734 8.69646 101.747L175.664 371.515C175.671 371.522 175.671 371.53 175.68 371.536C202.152 418.936 269.601 417.591 295.326 371.536C295.326 371.53 295.333 371.522 295.336 371.515L371.196 248.948C301.048 312.391 253.268 236.132 253.268 236.132Z" fill="white"/>
</mask>
<g mask="url(#mask0_9_3)">
<path d="M253.268 236.132C203.629 156.195 128.121 35.0729 128.121 35.0729C128.113 35.0649 128.113 35.0586 128.11 35.0506C109.691 2.07522 68.0301 -9.723 35.0516 8.69546C2.07778 27.1107 -9.7252 68.7734 8.69646 101.747L175.664 371.515C175.671 371.522 175.671 371.53 175.68 371.536C202.152 418.936 269.601 417.591 295.326 371.536C295.326 371.53 295.333 371.522 295.336 371.515L371.196 248.948C301.048 312.391 253.268 236.132 253.268 236.132Z" fill="url(#paint0_linear_9_3)"/>
</g>
<mask id="mask1_9_3" style="mask-type:luminance" maskUnits="userSpaceOnUse" x="235" y="-1" width="236" height="276">
<path d="M462.308 101.747C480.722 68.7733 468.922 27.1106 435.944 8.6953C402.97 -9.72317 361.307 2.07506 342.889 35.0504C342.889 35.0584 342.889 35.0647 342.886 35.0727C342.886 35.0727 283.555 130.241 235.503 207.536C241.655 217.434 247.635 227.057 253.268 236.132C253.268 236.132 301.048 312.39 371.196 248.948L462.308 101.747Z" fill="white"/>
</mask>
<g mask="url(#mask1_9_3)">
<path d="M462.308 101.747C480.722 68.7733 468.922 27.1106 435.944 8.6953C402.97 -9.72317 361.307 2.07506 342.889 35.0504C342.889 35.0584 342.889 35.0647 342.886 35.0727C342.886 35.0727 283.555 130.241 235.503 207.536C241.655 217.434 247.635 227.057 253.268 236.132C253.268 236.132 301.048 312.39 371.196 248.948L462.308 101.747Z" fill="url(#paint1_linear_9_3)"/>
</g>
<defs>
<linearGradient id="paint0_linear_9_3" x1="0.0011912" y1="203.292" x2="371.196" y2="203.292" gradientUnits="userSpaceOnUse">
<stop stop-color="#29ABE2"/>
<stop offset="0.145455" stop-color="#29ABE2"/>
<stop offset="1" stop-color="#00FFFF"/>
</linearGradient>
<linearGradient id="paint1_linear_9_3" x1="303.62" y1="230.915" x2="382.121" y2="98.7037" gradientUnits="userSpaceOnUse">
<stop stop-color="#A82884"/>
<stop offset="0.0121212" stop-color="#A82884"/>
<stop offset="1" stop-color="#FF47ED"/>
</linearGradient>
</defs>
</svg>
